<svg width="1010" height="840" viewBox="0 0 1010 840" fill="none" xmlns="http://www.w3.org/2000/svg">
<g clip-path="url(#clip0)">
<path opacity="0.1" d="M586.55 111.4C521.83 109.15 460.19 88.26 401.33 65.4C342.47 42.54 284.17 17.21 221 5.10001C180.37 -2.68999 133.9 -3.78999 101.17 17.99C69.66 38.99 59.48 75.14 54.01 108.72C49.89 133.98 47.47 160.57 58.75 184.21C66.59 200.63 80.49 214.43 90.11 230.16C123.58 284.88 99.92 352.36 63.66 405.79C46.66 430.86 26.91 454.79 13.78 481.45C0.650022 508.11 -5.41998 538.7 6.07002 565.92C17.45 592.92 44.58 613.16 73.97 627.41C133.66 656.36 203.97 664.64 272.58 669.33C424.41 679.72 577.04 675.22 729.27 670.72C785.61 669.05 842.19 667.36 897.61 658.65C928.39 653.81 960.16 646.14 982.51 627.6C1010.87 604.07 1017.9 564.23 998.89 534.72C967.01 485.23 878.89 472.94 856.58 419.83C844.32 390.59 856.91 358.03 874.74 330.91C912.98 272.75 977.07 221.72 980.44 155.24C982.76 109.58 951.95 63.85 904.31 42.24C854.38 19.6 785.13 22.44 748.31 59.93C710.36 98.53 643.7 113.38 586.55 111.4Z" fill="#6D10FF"/>
<path opacity="0.1" d="M483.49 822.11C651.368 822.11 787.46 803.7 787.46 780.99C787.46 758.28 651.368 739.87 483.49 739.87C315.612 739.87 179.52 758.28 179.52 780.99C179.52 803.7 315.612 822.11 483.49 822.11Z" fill="#6D10FF"/>
<g filter="url(#filter0_d)">
<path d="M333.01 658.57C333.01 658.57 354.01 655.21 366.61 670.05C366.61 670.05 357.37 677.33 337.49 667.25L333.01 658.57Z" fill="#6D10FF"/>
</g>
<g filter="url(#filter1_d)">
<path d="M330.77 658.24C330.77 658.24 317.37 674.82 323.94 693.09C323.94 693.09 334.86 688.72 336.05 666.46L330.77 658.24Z" fill="#6D10FF"/>
</g>
<g filter="url(#filter2_d)">
<path d="M318.77 631.13C318.77 631.13 327.17 615.73 360.77 637.29C360.77 637.29 356.29 647.65 341.45 646.81C326.61 645.97 322.64 639.25 318.77 631.13Z" fill="#6D10FF"/>
</g>
<g filter="url(#filter3_d)">
<path d="M316.56 630.02C316.56 630.02 299.13 628.02 297.44 667.92C297.44 667.92 308.49 670.22 316.34 657.59C324.19 644.96 320.94 637.9 316.56 630.02Z" fill="#6D10FF"/>
</g>
<g filter="url(#filter4_d)">
<path d="M306.4 598.2C306.4 598.2 316.2 571.03 351.77 590.35C351.77 590.35 343.65 615.28 310.04 607.44L306.4 598.2Z" fill="#6D10FF"/>
</g>
<g filter="url(#filter5_d)">
<path d="M295.48 557.59C295.48 557.59 313.96 530.15 346.73 555.59C346.73 555.59 335.25 581.35 298.28 567.35L295.48 557.59Z" fill="#6D10FF"/>
</g>
<g filter="url(#filter6_d)">
<path d="M291.56 518.95C291.56 518.95 313.12 493.75 345.56 518.95C345.56 518.95 325.11 541.07 291.56 525.39V518.95Z" fill="#6D10FF"/>
</g>
<g filter="url(#filter7_d)">
<path d="M288.2 481.43C288.2 481.43 310.04 455.1 341.13 480.03C341.13 480.03 316.48 503.27 288.2 487.59V481.43Z" fill="#6D10FF"/>
</g>
<g filter="url(#filter8_d)">
<path d="M290.16 448.1C290.16 448.1 313.16 414.22 342.25 437.18C342.25 437.18 317.6 466.31 290.16 454.54V448.1Z" fill="#6D10FF"/>
</g>
<g filter="url(#filter9_d)">
<path d="M295.48 409.18C295.48 409.18 319.84 375.58 348.13 401.34C348.13 401.34 319.28 430.46 295.48 415.34V409.18Z" fill="#6D10FF"/>
</g>
<g filter="url(#filter10_d)">
<path d="M303.61 374.39C303.61 374.39 332.44 342.82 357.61 355.39C357.61 355.39 327.55 388.92 302.35 382.76L303.61 374.39Z" fill="#6D10FF"/>
</g>
<g filter="url(#filter11_d)">
<path d="M313.68 341.42C313.68 341.42 347.01 302.77 366.33 315.65C366.33 315.65 341.81 345.65 311.33 348.7L313.68 341.42Z" fill="#6D10FF"/>
</g>
<g filter="url(#filter12_d)">
<path d="M328.23 303.16C328.23 303.16 357.37 271.58 378.65 279.42C378.65 279.42 353.73 312.19 324.32 313.03L328.23 303.16Z" fill="#6D10FF"/>
</g>
<g filter="url(#filter13_d)">
<path d="M341.41 267.38C341.41 267.38 373.61 237.14 387.61 242.46C387.61 242.46 364.37 276.06 340.01 274.1L341.41 267.38Z" fill="#6D10FF"/>
</g>
<path d="M354.29 234.34C354.29 234.34 382.01 198.22 397.13 201.02C397.13 201.02 380.33 233.22 354.29 238.02V234.34Z" fill="#6D10FF"/>
<path d="M368.26 189.82C368.26 189.82 392.77 162.12 406 162.19C406 162.19 386.66 199.19 367.26 198.85L368.26 189.82Z" fill="#6D10FF"/>
<g filter="url(#filter14_d)">
<path d="M376.55 160.13L400.21 102.45C400.21 102.45 401.4 154.59 373.53 170.83L376.55 160.13Z" fill="#6D10FF"/>
</g>
<g filter="url(#filter15_d)">
<path d="M386.15 96.52C386.15 96.52 390.07 48.36 387.55 44.44C387.55 44.44 404.48 84.44 385.99 117.8L386.15 96.52Z" fill="#6D10FF"/>
</g>
<g filter="url(#filter16_d)">
<path d="M305.49 597.55C305.49 597.55 280.94 582.34 265.06 619.55C265.06 619.55 286.9 634.05 308.37 607.04L305.49 597.55Z" fill="#6D10FF"/>
</g>
<g filter="url(#filter17_d)">
<path d="M294.7 556.04C294.7 556.04 264.6 542.31 249.99 581.16C249.99 581.16 273.25 597.16 297.44 565.86L294.7 556.04Z" fill="#6D10FF"/>
</g>
<g filter="url(#filter18_d)">
<path d="M290.16 521.26C290.16 521.26 268.6 496.06 236.16 521.26C236.16 521.26 256.6 543.38 290.16 527.7V521.26Z" fill="#6D10FF"/>
</g>
<g filter="url(#filter19_d)">
<path d="M287.47 481.43C287.47 481.43 265.62 455.1 234.54 480.03C234.54 480.03 259.18 503.27 287.47 487.59V481.43Z" fill="#6D10FF"/>
</g>
<g filter="url(#filter20_d)">
<path d="M290.16 449.06C290.16 449.06 274.84 411.11 241.54 427.43C241.54 427.43 259.54 461.09 288.81 455.36L290.16 449.06Z" fill="#6D10FF"/>
</g>
<path d="M297.41 408.99C297.41 408.99 282.19 370.38 248.41 388.28C248.41 388.28 269.09 423.67 295.91 414.96L297.41 408.99Z" fill="#6D10FF"/>
<g filter="url(#filter21_d)">
<path d="M306.85 374.59C306.85 374.59 300.85 332.25 272.9 328.46C272.9 328.46 278.83 373.1 303.12 382.21L306.85 374.59Z" fill="#6D10FF"/>
</g>
<g filter="url(#filter22_d)">
<path d="M314.4 341.49C314.4 341.49 312.05 290.49 288.9 288.72C288.9 288.72 289.68 327.42 311.79 348.72L314.4 341.49Z" fill="#6D10FF"/>
</g>
<g filter="url(#filter23_d)">
<path d="M330.64 301.7C330.64 301.7 323.73 259.3 301.64 254.11C301.64 254.11 304.38 295.18 328.45 312.11L330.64 301.7Z" fill="#6D10FF"/>
</g>
<g filter="url(#filter24_d)">
<path d="M344.03 267.69C344.03 267.69 343.79 223.51 330.29 217.02C330.29 217.02 321.92 257.02 340.12 273.33L344.03 267.69Z" fill="#6D10FF"/>
</g>
<g filter="url(#filter25_d)">
<path d="M355.32 233.82C355.32 233.82 353.42 188.32 339.45 181.91C339.45 181.91 334.66 217.91 353.22 236.79L355.32 233.82Z" fill="#6D10FF"/>
</g>
<g filter="url(#filter26_d)">
<path d="M370.22 193.42C370.22 193.42 370.13 156.42 360.15 147.74C360.15 147.74 350.23 188.28 365.01 200.86L370.22 193.42Z" fill="#6D10FF"/>
</g>
<g filter="url(#filter27_d)">
<path d="M375.37 158.31L365.67 96.72C365.67 96.72 352.47 147.19 375.83 169.42L375.37 158.31Z" fill="#6D10FF"/>
</g>
<g filter="url(#filter28_d)">
<path d="M377.27 97.1C377.27 97.1 352.34 55.71 352.86 51.1C352.86 51.1 355.5 94.5 386.86 116.1L377.27 97.1Z" fill="#6D10FF"/>
</g>
<g filter="url(#filter29_d)">
<path d="M380.19 84.88C380.19 84.88 356.67 26.07 346.03 21.31C346.03 21.31 379.63 38.39 382.15 83.2L380.19 84.88Z" fill="#6D10FF"/>
</g>
<path d="M367.13 199.17L365.52 198.68C385.37 133.95 390.33 92.68 379.47 82.34L380.63 81.12C392.13 92.03 387.47 132.82 367.13 199.17Z" fill="#444053"/>
<path d="M312.47 350.69L310.1 349.85C312.2 343.92 314.47 337.9 316.85 331.96C337.57 280.32 355.21 232.29 366.52 195.41L368.59 194.41C357.26 231.36 339.94 281.24 319.19 332.94C316.82 338.82 314.56 344.82 312.47 350.69Z" fill="#444053"/>
<path d="M362.56 707.02C362.24 706.66 330.06 670.44 307.64 608.58C294.493 572.376 287.169 534.317 285.94 495.82C284.4 447.69 294.5 393.95 311.8 345.14L313.68 347.34C274.85 456.9 290.28 550.79 310.74 607.34C332.94 668.63 364.74 704.47 365.06 704.82L362.56 707.02Z" fill="#444053"/>
<path d="M649.37 289.82H645.09C643.825 289.82 642.8 290.845 642.8 292.11V360.55C642.8 361.815 643.825 362.84 645.09 362.84H649.37C650.635 362.84 651.66 361.815 651.66 360.55V292.11C651.66 290.845 650.635 289.82 649.37 289.82Z" fill="#3A3768"/>
<path d="M351.05 232.61H350.66C349.395 232.61 348.37 233.635 348.37 234.9V254.36C348.37 255.625 349.395 256.65 350.66 256.65H351.05C352.315 256.65 353.34 255.625 353.34 254.36V234.9C353.34 233.635 352.315 232.61 351.05 232.61Z" fill="#3A3768"/>
<path d="M351.5 276.63H350.48C349.215 276.63 348.19 277.655 348.19 278.92V316.18C348.19 317.445 349.215 318.47 350.48 318.47H351.5C352.765 318.47 353.79 317.445 353.79 316.18V278.92C353.79 277.655 352.765 276.63 351.5 276.63Z" fill="#3A3768"/>
<path d="M351.32 333.11H350.57C349.305 333.11 348.28 334.135 348.28 335.4V373.02C348.28 374.285 349.305 375.31 350.57 375.31H351.32C352.585 375.31 353.61 374.285 353.61 373.02V335.4C353.61 334.135 352.585 333.11 351.32 333.11Z" fill="#3A3768"/>
<g filter="url(#filter30_d)">
<path d="M608.59 153.17H390.17C368.636 153.17 351.18 170.626 351.18 192.16V716.57C351.18 738.104 368.636 755.56 390.17 755.56H608.59C630.124 755.56 647.58 738.104 647.58 716.57V192.16C647.58 170.626 630.124 153.17 608.59 153.17Z" fill="#3A3768"/>
</g>
<path d="M605.77 168.82H571.77V172.91C571.77 175.456 571.268 177.977 570.294 180.329C569.319 182.681 567.891 184.818 566.09 186.617C564.29 188.417 562.152 189.844 559.799 190.818C557.447 191.791 554.926 192.291 552.38 192.29H444.25C441.704 192.291 439.183 191.791 436.831 190.818C434.478 189.844 432.34 188.417 430.54 186.617C428.739 184.818 427.311 182.681 426.336 180.329C425.362 177.977 424.86 175.456 424.86 172.91V168.82H393.03C386.787 168.82 380.799 171.3 376.385 175.715C371.97 180.129 369.49 186.117 369.49 192.36V716.33C369.49 722.573 371.97 728.561 376.385 732.975C380.799 737.39 386.787 739.87 393.03 739.87H605.77C612.013 739.87 618.001 737.39 622.415 732.975C626.83 728.561 629.31 722.573 629.31 716.33V192.4C629.315 189.305 628.71 186.24 627.53 183.379C626.349 180.519 624.616 177.919 622.429 175.729C620.243 173.539 617.646 171.801 614.788 170.616C611.929 169.43 608.865 168.82 605.77 168.82Z" fill="#6D10FF"/>
<path d="M508.31 171.16H474.66C472.523 171.16 470.79 172.893 470.79 175.03V175.69C470.79 177.827 472.523 179.56 474.66 179.56H508.31C510.447 179.56 512.18 177.827 512.18 175.69V175.03C512.18 172.893 510.447 171.16 508.31 171.16Z" fill="#E6E8EC"/>
<path d="M523.21 180.13C525.844 180.13 527.98 177.994 527.98 175.36C527.98 172.726 525.844 170.59 523.21 170.59C520.576 170.59 518.44 172.726 518.44 175.36C518.44 177.994 520.576 180.13 523.21 180.13Z" fill="#E6E8EC"/>
<g filter="url(#filter31_d)">
<path d="M750.2 126.75C750.2 126.75 666 121.67 675.92 180.67C675.92 180.67 673.92 191.1 683.4 195.83C683.4 195.83 683.55 191.46 692.04 192.95C695.063 193.451 698.133 193.599 701.19 193.39C705.314 193.119 709.237 191.515 712.37 188.82C712.37 188.82 736.04 179.04 745.24 140.36C745.24 140.36 752.05 131.92 751.78 129.75L737.57 135.82C737.57 135.82 742.43 146.07 738.57 154.59C738.57 154.59 738.11 136.19 735.38 136.59C734.83 136.67 728 140.14 728 140.14C728 140.14 736.35 157.99 730.05 170.97C730.05 170.97 732.44 148.97 725.39 141.43L715.39 147.27C715.39 147.27 725.15 165.71 718.53 180.76C718.53 180.76 720.23 157.68 713.28 148.69L704.22 155.76C704.22 155.76 713.39 173.93 707.8 186.41C707.8 186.41 707.07 159.55 702.26 157.52C702.26 157.52 694.33 164.52 693.12 167.38C693.12 167.38 699.4 180.58 695.5 187.54C695.5 187.54 693.11 169.64 691.15 169.54C691.15 169.54 683.25 181.4 682.43 189.54C682.43 189.54 682.77 177.45 689.24 168.42C689.24 168.42 681.6 169.73 677.14 174.68C677.14 174.68 678.37 166.3 691.19 165.56C691.19 165.56 697.72 156.56 699.46 156.02C699.46 156.02 686.72 154.95 678.99 158.38C678.99 158.38 685.79 150.47 701.8 154.07L710.75 146.76C710.75 146.76 693.97 144.47 686.85 147C686.85 147 695.04 140 713.16 145.1L722.9 139.28C722.9 139.28 708.59 136.2 700.07 137.28C700.07 137.28 709.07 132.43 725.76 137.69L732.76 134.56C732.76 134.56 722.28 132.5 719.21 132.17C716.14 131.84 715.98 131 715.98 131C722.62 129.893 729.436 130.651 735.67 133.19C735.67 133.19 750.45 127.68 750.2 126.75Z" fill="#6D10FF"/>
</g>
<g filter="url(#filter32_d)">
<path d="M663.83 100.51C663.83 100.51 625.83 98.22 630.27 124.88C630.27 124.88 629.38 129.59 633.65 131.73C633.65 131.73 633.72 129.73 637.56 130.42C638.924 130.65 640.31 130.717 641.69 130.62C643.555 130.497 645.329 129.766 646.74 128.54C646.74 128.54 657.44 124.12 661.6 106.64C661.6 106.64 664.67 102.83 664.55 101.85L658.13 104.59C658.13 104.59 660.32 109.22 658.6 113.07C658.6 113.07 658.39 104.76 657.16 104.95C656.91 104.95 653.82 106.56 653.82 106.56C653.82 106.56 657.6 114.63 654.75 120.49C654.75 120.49 655.83 110.55 652.64 107.14L648.12 109.82C648.12 109.82 652.53 118.15 649.54 124.95C649.54 124.95 650.31 114.52 647.17 110.46L643.08 113.66C643.08 113.66 647.22 121.87 644.7 127.51C644.7 127.51 644.36 115.37 642.19 114.45C642.19 114.45 638.61 117.61 638.06 118.91C638.06 118.91 640.9 124.91 639.14 128.02C639.14 128.02 638.06 119.93 637.14 119.89C637.14 119.89 633.57 125.25 633.2 128.89C633.379 125.496 634.44 122.208 636.28 119.35C634.22 119.74 632.319 120.724 630.81 122.18C630.81 122.18 631.37 118.39 637.16 118.06C637.16 118.06 640.16 113.99 640.9 113.74C640.9 113.74 635.14 113.26 631.65 114.81C631.65 114.81 634.72 111.24 641.95 112.86L645.95 109.56C645.95 109.56 638.36 108.56 635.15 109.67C635.15 109.67 638.85 106.51 647.04 108.81L651.44 106.18C651.44 106.18 644.97 104.79 641.12 105.29C641.12 105.29 645.19 103.1 652.73 105.47L655.88 104.06C655.88 104.06 651.14 103.13 649.75 102.98C648.36 102.83 648.29 102.45 648.29 102.45C651.292 101.951 654.374 102.297 657.19 103.45C657.19 103.45 663.95 100.93 663.83 100.51Z" fill="#6D10FF"/>
</g>
<path opacity="0.1" d="M602.86 226.18H395.91V665.42H602.86V226.18Z" fill="black"/>
<path d="M596.52 788.04C596.52 788.04 591.64 776.68 589.46 771.44C588.23 768.44 586.15 767.94 584.56 768.01L584.65 767.01L585.04 762.28L585.12 761.28C588.89 760.49 592.12 759.87 592.12 759.87L589.77 638.55C589.77 638.55 588.77 637.27 586.35 629.55C585.15 625.7 579.35 620.97 573.93 617.2C573.08 616.61 572.25 616.05 571.43 615.51C573.403 613.857 575.477 612.327 577.64 610.93C580.72 609.14 581.74 598.93 581.74 598.93L581.23 599.93C581.74 598.93 581.23 572.86 581.23 572.86L579.43 545.8C579.43 545.8 578.15 513.63 568.15 505.2C558.15 496.77 545.52 493.82 545.52 493.82L538.52 492.02L525.62 488.71C525.26 488.12 524.91 487.5 524.62 486.85C524.49 486.6 524.37 486.34 524.25 486.08C528.191 483.29 531.406 479.595 533.624 475.306C535.843 471.017 537 466.259 537 461.43C537.002 459.809 536.872 458.19 536.61 456.59C536.61 456.29 536.5 455.98 536.44 455.68C537.5 454.954 538.503 454.149 539.44 453.27C540.968 452.053 542.216 450.522 543.1 448.78C543.239 448.439 543.352 448.088 543.44 447.73C543.44 447.63 543.44 447.53 543.5 447.42C543.56 447.31 543.59 446.89 543.62 446.62C543.62 446.52 543.62 446.42 543.62 446.32C543.62 446.03 543.62 445.73 543.62 445.44C543.62 445.37 543.62 445.3 543.62 445.22C543.62 444.89 543.57 444.56 543.52 444.22C543.525 444.2 543.525 444.18 543.52 444.16C543.337 442.999 543.035 441.86 542.62 440.76C541.62 438.18 540.32 435.76 539.85 433.01C539.27 429.76 539.94 426.21 538.39 423.29C537.746 422.186 536.867 421.238 535.814 420.513C534.761 419.789 533.561 419.306 532.3 419.1C529.762 418.709 527.165 419.006 524.78 419.96C523.614 420.514 522.357 420.853 521.07 420.96C520.134 420.906 519.216 420.682 518.36 420.3C515.391 419.135 512.571 417.621 509.96 415.79C508.081 414.307 506.073 412.995 503.96 411.87C502.899 411.316 501.728 411.004 500.531 410.955C499.335 410.907 498.143 411.124 497.04 411.59C493.34 413.47 492.64 418.71 489.2 421.02C486.83 422.62 483.74 422.46 480.88 422.56C478.02 422.66 474.78 423.37 473.37 425.85C472.37 427.57 472.61 429.62 472.8 431.63L472.86 432.31C472.86 432.55 472.86 432.8 472.92 433.04C473.078 435.611 472.693 438.187 471.79 440.6C470.41 444.26 467.79 447.87 467.88 451.6C467.888 452.194 467.965 452.784 468.11 453.36C468.188 453.648 468.282 453.932 468.39 454.21C468.941 455.446 469.558 456.651 470.24 457.82L470.33 457.98C470.4 458.12 470.47 458.26 470.53 458.4C470.59 458.54 470.71 458.78 470.78 458.97C470.85 459.16 470.86 459.16 470.89 459.25C470.92 459.34 471.02 459.62 471.07 459.81C471.235 460.375 471.306 460.962 471.28 461.55C471.163 462.308 471.099 463.073 471.09 463.84C471.093 464.224 471.228 464.595 471.472 464.892C471.716 465.188 472.054 465.392 472.43 465.47C472.842 465.46 473.244 465.335 473.59 465.11C474.487 464.599 475.34 464.013 476.14 463.36C476.14 463.68 476.14 464 476.2 464.36C476.896 471.517 480.119 478.193 485.29 483.19C485.29 483.5 485.29 483.82 485.22 484.19C485.15 484.56 485.17 484.91 485.15 485.28L473.95 488.8C473.95 488.8 474.01 489 474.13 489.34L472.95 489.81C467.14 492.16 460.67 495.08 457.05 497.73C455.45 498.89 453.99 499.84 452.68 500.63C447.924 503.541 444.277 507.958 442.32 513.18L442.17 513.56C441.17 515.85 436.27 531.43 436.27 531.43C436.27 531.43 432.68 540.11 432.16 545.73C432.16 545.73 426.26 564.36 427.8 576.62C427.8 576.62 423.18 594.24 424.98 597.04C424.98 597.04 423.14 604.62 431.22 612.25C430.63 612.61 429.99 613 429.32 613.43C423.06 617.37 414.03 623.76 412.49 628.69C410.1 636.36 409.07 637.69 409.07 637.69L406.65 758.82C406.65 758.82 409.88 759.44 413.65 760.22L413.73 761.22L414.12 765.94L414.21 766.94C412.62 766.87 410.54 767.42 409.31 770.38C407.12 775.61 402.31 786.96 402.31 786.96C402.31 786.96 391.54 796.96 398.07 806.24C398.358 806.664 398.693 807.053 399.07 807.4C403.76 811.66 413.76 808.93 420.87 806.15C424.483 804.608 427.598 802.095 429.87 798.89C430.157 798.515 430.518 798.203 430.931 797.974C431.344 797.745 431.8 797.604 432.27 797.56C433.901 797.297 435.438 796.626 436.74 795.61C437.524 795.038 438.157 794.284 438.586 793.413C439.014 792.542 439.225 791.58 439.2 790.61C439.195 790.56 439.195 790.51 439.2 790.46L438.57 776.23C438.57 776.23 437.8 766.29 435.35 766.93L434.72 767.08L434.55 766.08L434.22 764.15L434.05 763.15H435.41C435.41 763.15 435.75 751.91 439.86 743.07C443.97 734.23 446.67 662.82 446.67 662.82C446.67 662.82 497.54 663.65 499.24 658.88C500.24 658.88 501.33 658.88 502.37 658.81C504.08 663.58 552.09 663.81 552.09 663.81C552.09 663.81 554.82 735.3 558.92 744.15C559.785 746.046 560.504 748.005 561.07 750.01C562.36 754.647 563.135 759.413 563.38 764.22H564.74L564.56 765.22L564.23 767.14L564.06 768.14L563.41 767.99C560.98 767.36 560.21 777.3 560.21 777.3L559.56 791.62C559.509 792.586 559.7 793.549 560.116 794.422C560.532 795.295 561.159 796.05 561.94 796.62C563.264 797.659 564.829 798.347 566.49 798.62C566.961 798.658 567.418 798.795 567.832 799.023C568.245 799.25 568.606 799.563 568.89 799.94C571.164 803.143 574.278 805.655 577.89 807.2C585.57 810.2 596.61 813.13 600.71 807.3C607.29 798 596.52 788.04 596.52 788.04ZM467.22 609.7H467.34H467.22ZM547.57 568.82C547.57 568.82 548.86 573.67 551.16 576.22C553.46 578.77 552.32 594.61 552.32 594.61C551.415 594.667 550.518 594.811 549.64 595.04C547.87 584.51 546.24 572.82 547.57 568.82Z" fill="url(#paint0_linear)"/>
<path d="M436.96 768.43L416.85 770.43L416.29 763.7L415.9 759.07L415.35 752.3L434.35 753.3L435.86 761.99L436.18 763.88H436.19L436.96 768.43Z" fill="#8E6F7F"/>
<path d="M583.41 753.31L582.86 760.07L582.48 764.7L581.91 771.43L561.79 769.43L562.59 764.88L562.9 763L564.41 754.31L583.41 753.31Z" fill="#8E6F7F"/>
<path d="M562.1 655.92L502.3 658.73C499.58 658.863 496.86 658.863 494.14 658.73L437.01 655.93V610.67H562.1V655.92Z" fill="#5F5570"/>
<path opacity="0.1" d="M562.1 655.92L502.3 658.73C499.58 658.863 496.86 658.863 494.14 658.73L437.01 655.93V610.67H562.1V655.92Z" fill="black"/>
<g filter="url(#filter33_d)">
<path d="M485.52 488.73C485.52 488.73 465.6 495.42 458.1 500.92C456.54 502.06 455.1 503 453.84 503.77C449.208 506.626 445.663 510.948 443.77 516.05C443.72 516.19 443.67 516.31 443.62 516.42C442.62 518.67 437.87 533.92 437.87 533.92C437.87 533.92 434.37 542.42 433.87 547.92C433.37 553.42 462.37 568.17 462.37 568.17C462.37 568.17 448.37 598.67 454.62 606.42C460.87 614.17 552.12 617.92 550.12 606.42C548.12 594.92 544.62 575.92 546.37 570.67L577.37 548.17C577.37 548.17 576.12 516.67 566.37 508.42C556.62 500.17 544.37 497.17 544.37 497.17L524.96 492.17C524.96 492.17 518.12 509.17 510.62 511.42C503.12 513.67 486.69 503.28 485.52 488.73Z" fill="#EAEAF2"/>
</g>
<path opacity="0.1" d="M513.5 517.36C513.5 517.36 505.04 524.42 500.6 517.36C500.6 517.36 496.6 529.3 500.6 533.3L500.45 534.11L499.74 537.67L490.48 614.67L498.1 627.82L511.97 610.42L510.85 538.42L510.35 534.29L510.23 533.29H512.6C512.6 533.29 518.89 522.42 513.5 517.36Z" fill="black"/>
<path opacity="0.1" d="M515.5 517.36C515.5 517.36 507.04 524.42 502.6 517.36C502.6 517.36 498.6 529.3 502.6 533.3L502.45 534.11L501.74 537.67L492.48 614.67L500.1 627.82L513.97 610.42L512.85 538.42L512.35 534.29L512.23 533.29H514.6C514.6 533.29 520.89 522.42 515.5 517.36Z" fill="black"/>
<g filter="url(#filter34_d)">
<path d="M512.97 609.43L499.1 626.8L491.46 613.72L500.73 536.68L501.44 533.12L501.6 532.3L502.85 529.06L511.23 532.3L511.35 533.3L511.85 537.43L512.97 609.43Z" fill="#BC8487"/>
</g>
<path opacity="0.1" d="M435.86 761.98C431.545 761.952 427.242 761.514 423.01 760.67C420.92 760.15 418.3 759.57 415.91 759.06L415.35 752.29L434.35 753.29L435.86 761.98Z" fill="black"/>
<g filter="url(#filter35_d)">
<path d="M499.25 658.82C497.59 663.49 448.01 662.67 448.01 662.67C448.01 662.67 445.35 732.67 441.35 741.34C437.35 750.01 437.01 761 437.01 761C437.01 761 428.35 761 423.01 759.67C417.67 758.34 409.01 756.67 409.01 756.67L411.35 637.92C411.35 637.92 412.35 636.67 414.68 629.16C416.18 624.33 424.98 618.07 431.07 614.16C434.47 612.02 437.01 610.62 437.01 610.62L466.59 611.82L484.85 612.56C484.85 612.56 500.92 654.15 499.25 658.82Z" fill="#5F5570"/>
</g>
<path opacity="0.1" d="M436.97 768.42L416.85 770.42L416.28 763.69C417.034 763.711 417.777 763.874 418.47 764.17C422.14 766.81 432.63 764.71 436.18 763.87L436.97 768.42Z" fill="black"/>
<g filter="url(#filter36_d)">
<path d="M440.77 787.87C440.794 788.819 440.587 789.76 440.167 790.612C439.747 791.463 439.127 792.201 438.36 792.76C437.094 793.753 435.598 794.41 434.01 794.67C433.552 794.709 433.107 794.846 432.705 795.07C432.304 795.294 431.954 795.601 431.68 795.97C429.457 799.105 426.412 801.565 422.88 803.08C415.95 805.8 406.2 808.47 401.63 804.3C401.253 803.965 400.917 803.585 400.63 803.17C394.26 794.05 404.76 784.29 404.76 784.29C404.76 784.29 409.5 773.17 411.63 768.05C411.86 767.386 412.228 766.778 412.709 766.265C413.19 765.752 413.773 765.347 414.422 765.075C415.07 764.803 415.768 764.671 416.471 764.688C417.174 764.704 417.865 764.868 418.5 765.17C422.5 768.05 434.63 765.29 437 764.68C439.37 764.07 440.13 773.79 440.13 773.79L440.77 787.72C440.765 787.77 440.765 787.82 440.77 787.87Z" fill="#BC8487"/>
</g>
<path opacity="0.1" d="M583.42 753.3L582.86 760.06C580.47 760.57 577.86 761.15 575.75 761.67C571.521 762.515 567.222 762.957 562.91 762.99L564.42 754.3L583.42 753.3Z" fill="black"/>
<g filter="url(#filter37_d)">
<path d="M589.77 757.67C589.77 757.67 581.11 759.34 575.77 760.67C570.43 762 561.77 762 561.77 762C561.77 762 561.44 751 557.44 742.34C553.44 733.68 550.77 663.67 550.77 663.67C550.77 663.67 503.99 663.4 502.32 658.73C500.65 654.06 522.71 613.73 522.71 613.73L536.16 613.03L561.77 611.67C561.77 611.67 566.77 614.39 572.01 618.06C577.25 621.73 582.94 626.39 584.11 630.16C586.44 637.67 587.44 638.92 587.44 638.92L589.77 757.67Z" fill="#5F5570"/>
</g>
<path opacity="0.1" d="M582.48 764.69L581.92 771.42L561.79 769.42L562.59 764.87C566.14 765.72 576.59 767.81 580.29 765.17C580.983 764.874 581.726 764.711 582.48 764.69Z" fill="black"/>
<g filter="url(#filter38_d)">
<path d="M580.29 766.17C580.925 765.867 581.618 765.701 582.322 765.684C583.026 765.667 583.725 765.798 584.375 766.07C585.024 766.342 585.609 766.748 586.091 767.261C586.572 767.775 586.94 768.384 587.17 769.05C589.29 774.17 594.04 785.3 594.04 785.3C594.04 785.3 604.54 795.05 598.17 804.17C594.17 809.89 583.41 807.02 575.93 804.08C572.394 802.571 569.348 800.11 567.13 796.97C566.854 796.6 566.503 796.293 566.1 796.069C565.696 795.845 565.25 795.709 564.79 795.67C563.165 795.387 561.638 794.699 560.35 793.67C559.593 793.11 558.986 792.371 558.583 791.52C558.18 790.668 557.994 789.731 558.04 788.79L558.67 774.79C558.67 774.79 559.42 765.06 561.79 765.67C564.16 766.28 576.29 769.05 580.29 766.17Z" fill="#BC8487"/>
</g>
<g filter="url(#filter39_d)">
<path d="M528.6 497.17L508.41 518.57L507.85 519.17L507.12 518.74C502.9 516.24 481.79 503.5 483.6 499.67C484.6 497.49 485.19 492.95 485.5 489.04C485.5 488.57 485.56 488.11 485.6 487.66C485.8 484.57 485.85 482.17 485.85 482.17C485.85 482.17 523.85 475.67 522.35 482.17C521.74 484.8 522.65 487.76 523.94 490.35C524.32 491.1 524.74 491.81 525.15 492.48C526.16 494.142 527.314 495.711 528.6 497.17Z" fill="#FFC4D0"/>
</g>
<path opacity="0.1" d="M523.94 490.35C518.271 494.528 511.3 496.551 504.275 496.058C497.25 495.565 490.63 492.588 485.6 487.66C485.8 484.57 485.85 482.17 485.85 482.17C485.85 482.17 523.85 475.67 522.35 482.17C521.77 484.82 522.65 487.76 523.94 490.35Z" fill="black"/>
<g filter="url(#filter40_d)">
<path d="M536.01 465.46C536.12 473.157 533.234 480.596 527.961 486.204C522.689 491.813 515.443 495.153 507.754 495.519C500.065 495.885 492.534 493.249 486.753 488.166C480.971 483.083 477.392 475.953 476.77 468.28C476.69 467.347 476.65 466.407 476.65 465.46C476.578 461.519 477.291 457.602 478.75 453.94C480.208 450.277 482.382 446.942 485.143 444.129C487.905 441.316 491.2 439.082 494.835 437.556C498.47 436.031 502.373 435.245 506.315 435.245C510.257 435.245 514.16 436.031 517.795 437.556C521.43 439.082 524.725 441.316 527.487 444.129C530.248 446.942 532.422 450.277 533.88 453.94C535.339 457.602 536.052 461.519 535.98 465.46H536.01Z" fill="#FFC4D0"/>
</g>
<path opacity="0.1" d="M535.64 460.72C534.868 461.349 533.972 461.808 533.011 462.069C532.049 462.329 531.044 462.384 530.06 462.23C525.48 461.23 523.91 454.23 519.23 453.75C514.55 453.27 511.44 459.75 506.7 459.62C504.7 459.57 502.9 458.26 501.06 457.35C497.84 455.76 492.54 454.79 489.06 455.99C483.83 457.78 482.06 462.62 478.72 466.47C478.149 467.126 477.524 467.731 476.85 468.28C476.77 467.347 476.73 466.407 476.73 465.46C476.662 457.956 479.44 450.705 484.504 445.168C489.568 439.63 496.543 436.217 504.023 435.616C511.503 435.015 518.933 437.271 524.816 441.929C530.699 446.587 534.599 453.302 535.73 460.72H535.64Z" fill="black"/>
<g filter="url(#filter41_d)">
<path d="M501.06 456.36C502.9 457.26 504.66 458.58 506.7 458.63C511.43 458.75 514.52 452.24 519.22 452.75C523.92 453.26 525.47 460.2 530.07 461.23C533.16 461.93 536.07 459.62 538.38 457.47C539.873 456.281 541.09 454.784 541.95 453.08C542.95 450.6 542.43 447.74 541.5 445.22C540.57 442.7 539.26 440.28 538.8 437.63C538.24 434.45 538.89 430.97 537.38 428.11C536.755 427.03 535.898 426.101 534.871 425.392C533.844 424.683 532.672 424.211 531.44 424.01C528.966 423.626 526.435 423.913 524.11 424.84C522.977 425.39 521.754 425.729 520.5 425.84C519.585 425.784 518.687 425.564 517.85 425.19C514.958 424.05 512.212 422.57 509.67 420.78C507.847 419.325 505.896 418.04 503.84 416.94C502.807 416.398 501.666 416.092 500.5 416.045C499.335 415.999 498.173 416.212 497.1 416.67C493.5 418.51 492.81 423.67 489.46 425.9C487.15 427.46 484.14 427.3 481.36 427.41C478.58 427.52 475.36 428.19 474.04 430.62C472.86 432.71 473.45 435.28 473.6 437.67C473.749 440.187 473.371 442.708 472.49 445.07C470.94 449.21 467.79 453.29 468.91 457.57C469.64 460.38 472.16 462.71 472.01 465.57C471.892 466.308 471.829 467.053 471.82 467.8C471.823 468.176 471.955 468.54 472.193 468.831C472.432 469.122 472.762 469.323 473.13 469.4C473.531 469.395 473.921 469.27 474.25 469.04C475.913 468.11 477.404 466.903 478.66 465.47C482.04 461.61 483.79 456.78 489.02 454.99C492.55 453.82 497.84 454.76 501.06 456.36Z" fill="#8E6F7F"/>
</g>
<g filter="url(#filter42_d)">
<path d="M535.47 630.92L530.07 632.39L517.6 635.82C514.714 637.97 511.466 639.586 508.01 640.59C500.38 642.52 495.45 638.32 491.35 631.82C489.7 629.22 490.53 627.14 492.69 625.51C497.89 621.58 510.75 620.3 514.69 620.82C517.278 621.031 519.878 620.626 522.28 619.64C523.985 619.02 525.628 618.243 527.19 617.32L535.47 630.92Z" fill="#FFC4D0"/>
</g>
<path opacity="0.1" d="M535.47 630.92L530.07 632.39C528.52 627.72 525.97 621.86 522.32 619.61C524.025 618.99 525.668 618.213 527.23 617.29L535.47 630.92Z" fill="black"/>
<path opacity="0.1" d="M571.99 618.06C569.75 619.87 567.85 621.52 567.85 621.52C567.85 621.52 541.85 629.67 536.85 639.92C536.85 639.92 532.85 619.92 524.35 619.67C524.35 619.67 533.5 616.08 536.14 613.01L561.77 611.67C561.77 611.67 566.77 614.39 571.99 618.06Z" fill="black"/>
<g filter="url(#filter43_d)">
<path d="M571.6 539.67L577.35 548.17L579.1 574.67C579.1 574.67 579.6 600.17 579.1 601.17L579.6 600.17C579.6 600.17 578.6 610.17 575.6 611.92C572.6 613.67 565.85 619.52 565.85 619.52C565.85 619.52 539.85 627.67 534.85 637.92C534.85 637.92 530.85 617.92 522.35 617.67C522.35 617.67 535.1 612.67 534.85 609.42C534.85 609.42 544.6 600.67 545.35 598.42C546.1 596.17 550.97 595.92 550.97 595.92C550.97 595.92 552.1 580.42 549.85 577.92C547.6 575.42 546.35 570.67 546.35 570.67L571.6 539.67Z" fill="#EAEAF2"/>
</g>
<path opacity="0.1" d="M508.01 640.56C500.38 642.49 495.45 638.29 491.35 631.79C489.7 629.19 490.53 627.11 492.69 625.48L493.47 625.79C493.47 625.79 507.22 631.75 508.01 640.56Z" fill="black"/>
<g filter="url(#filter44_d)">
<path d="M504.85 648.55C495.85 661.05 479.1 643.67 477.85 640.17C477.4 638.9 475.69 637.77 473.72 636.86C471.221 635.768 468.627 634.908 465.97 634.29L480.85 622.17L483.7 623.31L492.47 626.82C492.47 626.82 513.85 636.05 504.85 648.55Z" fill="#FFC4D0"/>
</g>
<path opacity="0.1" d="M483.7 623.31C475.5 627.21 473.75 632.82 473.7 636.86C471.201 635.768 468.606 634.908 465.95 634.29L480.83 622.17L483.7 623.31Z" fill="black"/>
<path opacity="0.1" d="M470.6 644.92C470.6 644.92 446.6 625.92 435.1 617.67C433.661 616.645 432.322 615.486 431.1 614.21C434.5 612.07 437.04 610.67 437.04 610.67L466.62 611.87C467.41 613.24 467.88 614.17 467.88 614.17L483.88 624.67C464.6 630.92 470.6 644.92 470.6 644.92Z" fill="black"/>
<g filter="url(#filter45_d)">
<path d="M438.6 545.17L433.85 547.92C433.85 547.92 428.1 566.17 429.6 578.17C429.6 578.17 425.1 595.42 426.85 598.17C426.85 598.17 424.6 607.42 436.1 615.67C447.6 623.92 471.6 642.92 471.6 642.92C471.6 642.92 465.6 628.92 484.85 622.67L468.85 612.17C468.85 612.17 463.48 601.51 458.35 599.17C458.35 599.17 454.35 595.17 456.85 592.42C459.35 589.67 461.35 586.67 461.35 583.92C461.35 581.17 462.35 568.17 462.35 568.17L465.35 554.17L438.6 545.17Z" fill="#EAEAF2"/>
</g>
<path opacity="0.1" d="M511.35 533.29H501.6C501.541 533.235 501.488 533.175 501.44 533.11L501.6 532.29L502.85 529.05L511.23 532.29L511.35 533.29Z" fill="black"/>
<path d="M514.5 516.36C514.5 516.36 506.04 523.42 501.6 516.36C501.6 516.36 497.6 528.3 501.6 532.3H513.6C513.6 532.3 519.89 521.42 514.5 516.36Z" fill="#BC8487"/>
<path opacity="0.1" d="M525.94 493.17L538.54 496.42C538.54 496.42 526.6 527.42 523.97 527.42L508.85 520.17L525.94 493.17Z" fill="black"/>
<path opacity="0.1" d="M528.6 497.17L508.41 518.57L507.85 519.17L507.12 518.74L524.77 491.82L525.2 492.53C526.196 494.173 527.334 495.725 528.6 497.17Z" fill="black"/>
<g filter="url(#filter46_d)">
<path d="M524.94 492.17L537.54 495.42C537.54 495.42 525.6 526.42 522.97 526.42L507.85 519.17L524.94 492.17Z" fill="#EAEAF2"/>
</g>
<path opacity="0.1" d="M484.52 489.73L473.6 493.17C473.6 493.17 484.35 525.67 487.35 527.42L506.85 520.17L484.52 489.73Z" fill="black"/>
<path opacity="0.1" d="M508.41 518.57L507.85 519.17C507.85 519.17 481.6 503.92 483.6 499.67C484.6 497.49 485.19 492.95 485.5 489.04V488.43L508.41 518.57Z" fill="black"/>
<g filter="url(#filter47_d)">
<path d="M485.52 488.73L474.6 492.17C474.6 492.17 485.35 524.67 488.35 526.42L507.85 519.17L485.52 488.73Z" fill="#EAEAF2"/>
</g>
<path opacity="0.1" d="M459.51 541.82C459.51 541.82 466.09 542.99 465.97 549.82C465.85 556.65 468.68 540.99 468.68 540.99L459.51 541.82Z" fill="black"/>
<path opacity="0.1" d="M461.01 562.82C461.01 562.82 459.18 573.15 461.01 582.49C462.84 591.83 462.68 594.99 464.1 595.49C465.52 595.99 461.01 562.82 461.01 562.82Z" fill="black"/>
<path opacity="0.1" d="M545.01 561.82C544.485 561.887 543.981 562.067 543.534 562.35C543.086 562.632 542.706 563.009 542.42 563.455C542.134 563.9 541.949 564.402 541.878 564.927C541.807 565.451 541.852 565.985 542.01 566.49C542.85 570.67 545.01 561.82 545.01 561.82Z" fill="black"/>
<path opacity="0.1" d="M430.68 596.82C430.68 596.82 452.11 594.99 455.68 598.82C459.25 602.65 430.68 596.82 430.68 596.82Z" fill="black"/>
<path opacity="0.1" d="M555.01 598.27C555.01 598.27 570.68 596.34 574.35 599.01L555.01 598.27Z" fill="black"/>
<path opacity="0.1" d="M561.35 600.82C561.35 600.82 570.68 601.15 572.85 602.32L561.35 600.82Z" fill="black"/>
<path opacity="0.1" d="M563.18 604.17C563.18 604.17 571.68 603.84 572.85 605.17L563.18 604.17Z" fill="black"/>
<path opacity="0.1" d="M443.31 651.17C443.31 651.17 450.59 654.96 449.85 658.83C449.11 662.7 443.31 651.17 443.31 651.17Z" fill="black"/>
<path opacity="0.1" d="M437.01 653.01C437.01 653.01 448.12 667.42 446.61 672.17C445.1 676.92 437.01 653.01 437.01 653.01Z" fill="black"/>
<path opacity="0.1" d="M556.1 655.4C556.1 655.4 550.6 659.93 550.75 663.67L556.1 655.4Z" fill="black"/>
<path opacity="0.1" d="M429.1 744.67C429.1 744.67 429.1 748.92 436.97 755.17L429.1 744.67Z" fill="black"/>
<path opacity="0.1" d="M568.01 734.67C568.01 734.67 567.17 743.51 559.51 748.09L568.01 734.67Z" fill="black"/>
<g opacity="0.1">
<path opacity="0.1" d="M473.6 434.63C473.6 433.94 473.48 433.23 473.42 432.53C473.293 434.057 473.34 435.594 473.56 437.11C473.628 436.285 473.642 435.457 473.6 434.63Z" fill="black"/>
<path opacity="0.1" d="M472.01 462.57C472.16 459.67 469.64 457.34 468.91 454.57C468.873 454.436 468.846 454.299 468.83 454.16C468.602 455.288 468.629 456.454 468.91 457.57C469.5 459.86 471.28 461.82 471.84 464.04C471.89 463.52 471.99 463.05 472.01 462.57Z" fill="black"/>
<path opacity="0.1" d="M541.95 450.08C541.088 451.782 539.87 453.279 538.38 454.47C536.05 456.62 533.16 458.93 530.07 458.23C525.48 457.23 523.9 450.23 519.22 449.75C514.54 449.27 511.43 455.75 506.7 455.62C504.7 455.57 502.9 454.26 501.06 453.35C497.84 451.76 492.55 450.79 489.06 451.99C483.83 453.78 482.06 458.62 478.7 462.47C477.446 463.903 475.958 465.114 474.3 466.05C473.964 466.272 473.572 466.393 473.17 466.4C472.919 466.366 472.682 466.265 472.485 466.106C472.287 465.947 472.137 465.738 472.05 465.5V465.57C471.932 466.311 471.869 467.06 471.86 467.81C471.866 468.184 471.998 468.546 472.236 468.835C472.474 469.124 472.804 469.323 473.17 469.4C473.572 469.393 473.964 469.272 474.3 469.05C475.958 468.114 477.446 466.903 478.7 465.47C482.08 461.62 483.83 456.78 489.06 454.99C492.59 453.79 497.88 454.76 501.06 456.35C502.9 457.26 504.66 458.57 506.7 458.62C511.43 458.74 514.52 452.23 519.22 452.75C523.92 453.27 525.48 460.19 530.07 461.23C533.16 461.93 536.07 459.62 538.38 457.47C539.87 456.279 541.088 454.782 541.95 453.08C542.507 451.635 542.656 450.064 542.38 448.54C542.295 449.068 542.151 449.585 541.95 450.08Z" fill="black"/>
</g>
<path opacity="0.1" d="M404.77 784.3C404.77 784.3 412.94 781.78 416.33 786.56L404.77 784.3Z" fill="black"/>
<path opacity="0.1" d="M594.04 785.3C594.04 785.3 580.51 784.51 581.04 788.17L594.04 785.3Z" fill="black"/>
<path opacity="0.1" d="M864.17 777.89C879.043 777.89 891.1 775.853 891.1 773.34C891.1 770.827 879.043 768.79 864.17 768.79C849.297 768.79 837.24 770.827 837.24 773.34C837.24 775.853 849.297 777.89 864.17 777.89Z" fill="#6D10FF"/>
<path opacity="0.1" d="M91.09 815.23C105.963 815.23 118.02 813.193 118.02 810.68C118.02 808.167 105.963 806.13 91.09 806.13C76.217 806.13 64.16 808.167 64.16 810.68C64.16 813.193 76.217 815.23 91.09 815.23Z" fill="#6D10FF"/>
<path opacity="0.1" d="M195.26 839.64C210.133 839.64 222.19 837.603 222.19 835.09C222.19 832.577 210.133 830.54 195.26 830.54C180.387 830.54 168.33 832.577 168.33 835.09C168.33 837.603 180.387 839.64 195.26 839.64Z" fill="#6D10FF"/>
<path d="M805.22 828.9C827.427 828.9 845.43 825.856 845.43 822.1C845.43 818.344 827.427 815.3 805.22 815.3C783.013 815.3 765.01 818.344 765.01 822.1C765.01 825.856 783.013 828.9 805.22 828.9Z" fill="#6D10FF"/>
<path d="M821.85 810.98C823.683 809.481 825.018 807.463 825.68 805.19C826.18 802.9 825.2 800.19 823 799.3C820.54 798.36 817.91 800.07 815.92 801.79C813.93 803.51 811.64 805.48 809.03 805.11C810.373 803.895 811.379 802.353 811.948 800.633C812.518 798.914 812.632 797.077 812.28 795.3C812.163 794.563 811.848 793.872 811.37 793.3C810.01 791.84 807.53 792.46 805.9 793.62C800.7 797.27 799.25 804.34 799.22 810.69C798.69 808.4 799.14 806.01 799.12 803.69C799.1 801.37 798.47 798.69 796.48 797.46C795.252 796.801 793.873 796.477 792.48 796.52C790.14 796.43 787.54 796.67 785.94 798.38C783.94 800.5 784.48 804.06 786.2 806.38C787.92 808.7 790.55 810.19 792.97 811.8C794.906 812.954 796.557 814.53 797.8 816.41C797.95 816.673 798.071 816.951 798.16 817.24H812.77C816.064 815.571 819.119 813.465 821.85 810.98Z" fill="#6D10FF"/>
<path d="M196.65 723.27C196.65 723.27 202.15 730.46 194.12 741.27C186.09 752.08 179.47 761.27 182.12 768.04C182.12 768.04 194.24 747.89 204.12 747.61C214 747.33 207.5 735.39 196.65 723.27Z" fill="#6D10FF"/>
<path opacity="0.1" d="M196.65 723.27C197.13 723.966 197.507 724.727 197.77 725.53C207.39 736.83 212.52 747.38 203.27 747.64C194.66 747.89 184.33 763.29 181.85 767.18C181.93 767.48 182.03 767.77 182.14 768.07C182.14 768.07 194.26 747.92 204.14 747.64C214.02 747.36 207.5 735.39 196.65 723.27Z" fill="black"/>
<path d="M206.86 732.43C206.86 734.96 206.58 737.01 206.23 737.01C205.88 737.01 205.6 734.96 205.6 732.43C205.6 729.9 205.95 731.09 206.3 731.09C206.65 731.09 206.86 729.9 206.86 732.43Z" fill="#FFD037"/>
<path d="M210.37 735.45C208.15 736.66 206.21 737.39 206.05 737.08C205.89 736.77 207.54 735.54 209.76 734.33C211.98 733.12 211.11 734 211.27 734.33C211.43 734.66 212.59 734.24 210.37 735.45Z" fill="#FFD037"/>
<path d="M167.64 723.27C167.64 723.27 162.14 730.46 170.17 741.27C178.2 752.08 184.82 761.27 182.17 768.04C182.17 768.04 170.06 747.89 160.17 747.61C150.28 747.33 156.77 735.39 167.64 723.27Z" fill="#6D10FF"/>
<path opacity="0.1" d="M167.64 723.27C167.159 723.966 166.779 724.727 166.51 725.53C156.89 736.83 151.77 747.38 161.01 747.64C169.63 747.89 179.96 763.29 182.44 767.18C182.358 767.482 182.258 767.78 182.14 768.07C182.14 768.07 170.03 747.92 160.14 747.64C150.25 747.36 156.77 735.39 167.64 723.27Z" fill="black"/>
<path d="M157.42 732.43C157.42 734.96 157.71 737.01 158.06 737.01C158.41 737.01 158.69 734.96 158.69 732.43C158.69 729.9 158.34 731.09 157.99 731.09C157.64 731.09 157.42 729.9 157.42 732.43Z" fill="#FFD037"/>
<path d="M153.92 735.45C156.14 736.66 158.07 737.39 158.24 737.08C158.41 736.77 156.74 735.54 154.52 734.33C152.3 733.12 153.18 734 153.01 734.33C152.84 734.66 151.7 734.24 153.92 735.45Z" fill="#FFD037"/>
<path d="M159.17 767.13C159.17 767.13 174.53 766.65 179.17 763.36C183.81 760.07 202.8 756.12 203.94 761.41C205.08 766.7 227.03 787.7 209.69 787.84C192.35 787.98 169.39 785.14 164.77 782.33C160.15 779.52 159.17 767.13 159.17 767.13Z" fill="#A8A8A8"/>
<path opacity="0.2" d="M209.99 786C192.65 786.14 169.69 783.3 165.07 780.49C161.56 778.34 160.15 770.65 159.68 767.11H159.17C159.17 767.11 160.17 779.49 164.76 782.31C169.35 785.13 192.34 787.96 209.68 787.82C214.68 787.82 216.41 786 216.32 783.36C215.62 784.98 213.71 785.97 209.99 786Z" fill="black"/>
</g>
<defs>
<filter id="filter0_d" x="329.01" y="658.244" width="41.6" height="22.3484" filterUnits="userSpaceOnUse" color-interpolation-filters="sRGB">
<feFlood flood-opacity="0" result="BackgroundImageFix"/>
<feColorMatrix in="SourceAlpha" type="matrix" values="0 0 0 0 0 0 0 0 0 0 0 0 0 0 0 0 0 0 127 0"/>
<feOffset dy="4"/>
<feGaussianBlur stdDeviation="2"/>
<feColorMatrix type="matrix" values="0 0 0 0 0 0 0 0 0 0 0 0 0 0 0 0 0 0 0.25 0"/>
<feBlend mode="normal" in2="BackgroundImageFix" result="effect1_dropShadow"/>
<feBlend mode="normal" in="SourceGraphic" in2="effect1_dropShadow" result="shape"/>
</filter>
<filter id="filter1_d" x="318.127" y="658.24" width="21.9229" height="42.85" filterUnits="userSpaceOnUse" color-interpolation-filters="sRGB">
<feFlood flood-opacity="0" result="BackgroundImageFix"/>
<feColorMatrix in="SourceAlpha" type="matrix" values="0 0 0 0 0 0 0 0 0 0 0 0 0 0 0 0 0 0 127 0"/>
<feOffset dy="4"/>
<feGaussianBlur stdDeviation="2"/>
<feColorMatrix type="matrix" values="0 0 0 0 0 0 0 0 0 0 0 0 0 0 0 0 0 0 0.25 0"/>
<feBlend mode="normal" in2="BackgroundImageFix" result="effect1_dropShadow"/>
<feBlend mode="normal" in="SourceGraphic" in2="effect1_dropShadow" result="shape"/>
</filter>
<filter id="filter2_d" x="314.77" y="625.801" width="50" height="29.0572" filterUnits="userSpaceOnUse" color-interpolation-filters="sRGB">
<feFlood flood-opacity="0" result="BackgroundImageFix"/>
<feColorMatrix in="SourceAlpha" type="matrix" values="0 0 0 0 0 0 0 0 0 0 0 0 0 0 0 0 0 0 127 0"/>
<feOffset dy="4"/>
<feGaussianBlur stdDeviation="2"/>
<feColorMatrix type="matrix" values="0 0 0 0 0 0 0 0 0 0 0 0 0 0 0 0 0 0 0.25 0"/>
<feBlend mode="normal" in2="BackgroundImageFix" result="effect1_dropShadow"/>
<feBlend mode="normal" in="SourceGraphic" in2="effect1_dropShadow" result="shape"/>
</filter>
<filter id="filter3_d" x="293.44" y="630.003" width="31.6644" height="46.0805" filterUnits="userSpaceOnUse" color-interpolation-filters="sRGB">
<feFlood flood-opacity="0" result="BackgroundImageFix"/>
<feColorMatrix in="SourceAlpha" type="matrix" values="0 0 0 0 0 0 0 0 0 0 0 0 0 0 0 0 0 0 127 0"/>
<feOffset dy="4"/>
<feGaussianBlur stdDeviation="2"/>
<feColorMatrix type="matrix" values="0 0 0 0 0 0 0 0 0 0 0 0 0 0 0 0 0 0 0.25 0"/>
<feBlend mode="normal" in2="BackgroundImageFix" result="effect1_dropShadow"/>
<feBlend mode="normal" in="SourceGraphic" in2="effect1_dropShadow" result="shape"/>
</filter>
<filter id="filter4_d" x="302.4" y="583.413" width="53.37" height="33.552" filterUnits="userSpaceOnUse" color-interpolation-filters="sRGB">
<feFlood flood-opacity="0" result="BackgroundImageFix"/>
<feColorMatrix in="SourceAlpha" type="matrix" values="0 0 0 0 0 0 0 0 0 0 0 0 0 0 0 0 0 0 127 0"/>
<feOffset dy="4"/>
<feGaussianBlur stdDeviation="2"/>
<feColorMatrix type="matrix" values="0 0 0 0 0 0 0 0 0 0 0 0 0 0 0 0 0 0 0.25 0"/>
<feBlend mode="normal" in2="BackgroundImageFix" result="effect1_dropShadow"/>
<feBlend mode="normal" in="SourceGraphic" in2="effect1_dropShadow" result="shape"/>
</filter>
<filter id="filter5_d" x="291.48" y="544.78" width="59.25" height="34.738" filterUnits="userSpaceOnUse" color-interpolation-filters="sRGB">
<feFlood flood-opacity="0" result="BackgroundImageFix"/>
<feColorMatrix in="SourceAlpha" type="matrix" values="0 0 0 0 0 0 0 0 0 0 0 0 0 0 0 0 0 0 127 0"/>
<feOffset dy="4"/>
<feGaussianBlur stdDeviation="2"/>
<feColorMatrix type="matrix" values="0 0 0 0 0 0 0 0 0 0 0 0 0 0 0 0 0 0 0.25 0"/>
<feBlend mode="normal" in2="BackgroundImageFix" result="effect1_dropShadow"/>
<feBlend mode="normal" in="SourceGraphic" in2="effect1_dropShadow" result="shape"/>
</filter>
<filter id="filter6_d" x="287.56" y="507.75" width="62" height="31.2579" filterUnits="userSpaceOnUse" color-interpolation-filters="sRGB">
<feFlood flood-opacity="0" result="BackgroundImageFix"/>
<feColorMatrix in="SourceAlpha" type="matrix" values="0 0 0 0 0 0 0 0 0 0 0 0 0 0 0 0 0 0 127 0"/>
<feOffset dy="4"/>
<feGaussianBlur stdDeviation="2"/>
<feColorMatrix type="matrix" values="0 0 0 0 0 0 0 0 0 0 0 0 0 0 0 0 0 0 0.25 0"/>
<feBlend mode="normal" in2="BackgroundImageFix" result="effect1_dropShadow"/>
<feBlend mode="normal" in="SourceGraphic" in2="effect1_dropShadow" result="shape"/>
</filter>
<filter id="filter7_d" x="284.2" y="469.302" width="60.93" height="31.7224" filterUnits="userSpaceOnUse" color-interpolation-filters="sRGB">
<feFlood flood-opacity="0" result="BackgroundImageFix"/>
<feColorMatrix in="SourceAlpha" type="matrix" values="0 0 0 0 0 0 0 0 0 0 0 0 0 0 0 0 0 0 127 0"/>
<feOffset dy="4"/>
<feGaussianBlur stdDeviation="2"/>
<feColorMatrix type="matrix" values="0 0 0 0 0 0 0 0 0 0 0 0 0 0 0 0 0 0 0.25 0"/>
<feBlend mode="normal" in2="BackgroundImageFix" result="effect1_dropShadow"/>
<feBlend mode="normal" in="SourceGraphic" in2="effect1_dropShadow" result="shape"/>
</filter>
<filter id="filter8_d" x="286.16" y="429.199" width="60.09" height="36.142" filterUnits="userSpaceOnUse" color-interpolation-filters="sRGB">
<feFlood flood-opacity="0" result="BackgroundImageFix"/>
<feColorMatrix in="SourceAlpha" type="matrix" values="0 0 0 0 0 0 0 0 0 0 0 0 0 0 0 0 0 0 127 0"/>
<feOffset dy="4"/>
<feGaussianBlur stdDeviation="2"/>
<feColorMatrix type="matrix" values="0 0 0 0 0 0 0 0 0 0 0 0 0 0 0 0 0 0 0.25 0"/>
<feBlend mode="normal" in2="BackgroundImageFix" result="effect1_dropShadow"/>
<feBlend mode="normal" in="SourceGraphic" in2="effect1_dropShadow" result="shape"/>
</filter>
<filter id="filter9_d" x="291.48" y="391.622" width="60.65" height="36.0718" filterUnits="userSpaceOnUse" color-interpolation-filters="sRGB">
<feFlood flood-opacity="0" result="BackgroundImageFix"/>
<feColorMatrix in="SourceAlpha" type="matrix" values="0 0 0 0 0 0 0 0 0 0 0 0 0 0 0 0 0 0 127 0"/>
<feOffset dy="4"/>
<feGaussianBlur stdDeviation="2"/>
<feColorMatrix type="matrix" values="0 0 0 0 0 0 0 0 0 0 0 0 0 0 0 0 0 0 0.25 0"/>
<feBlend mode="normal" in2="BackgroundImageFix" result="effect1_dropShadow"/>
<feBlend mode="normal" in="SourceGraphic" in2="effect1_dropShadow" result="shape"/>
</filter>
<filter id="filter10_d" x="298.35" y="352.433" width="63.26" height="39.0828" filterUnits="userSpaceOnUse" color-interpolation-filters="sRGB">
<feFlood flood-opacity="0" result="BackgroundImageFix"/>
<feColorMatrix in="SourceAlpha" type="matrix" values="0 0 0 0 0 0 0 0 0 0 0 0 0 0 0 0 0 0 127 0"/>
<feOffset dy="4"/>
<feGaussianBlur stdDeviation="2"/>
<feColorMatrix type="matrix" values="0 0 0 0 0 0 0 0 0 0 0 0 0 0 0 0 0 0 0.25 0"/>
<feBlend mode="normal" in2="BackgroundImageFix" result="effect1_dropShadow"/>
<feBlend mode="normal" in="SourceGraphic" in2="effect1_dropShadow" result="shape"/>
</filter>
<filter id="filter11_d" x="307.33" y="313.022" width="63" height="43.678" filterUnits="userSpaceOnUse" color-interpolation-filters="sRGB">
<feFlood flood-opacity="0" result="BackgroundImageFix"/>
<feColorMatrix in="SourceAlpha" type="matrix" values="0 0 0 0 0 0 0 0 0 0 0 0 0 0 0 0 0 0 127 0"/>
<feOffset dy="4"/>
<feGaussianBlur stdDeviation="2"/>
<feColorMatrix type="matrix" values="0 0 0 0 0 0 0 0 0 0 0 0 0 0 0 0 0 0 0.25 0"/>
<feBlend mode="normal" in2="BackgroundImageFix" result="effect1_dropShadow"/>
<feBlend mode="normal" in="SourceGraphic" in2="effect1_dropShadow" result="shape"/>
</filter>
<filter id="filter12_d" x="320.32" y="278.169" width="62.33" height="42.8608" filterUnits="userSpaceOnUse" color-interpolation-filters="sRGB">
<feFlood flood-opacity="0" result="BackgroundImageFix"/>
<feColorMatrix in="SourceAlpha" type="matrix" values="0 0 0 0 0 0 0 0 0 0 0 0 0 0 0 0 0 0 127 0"/>
<feOffset dy="4"/>
<feGaussianBlur stdDeviation="2"/>
<feColorMatrix type="matrix" values="0 0 0 0 0 0 0 0 0 0 0 0 0 0 0 0 0 0 0.25 0"/>
<feBlend mode="normal" in2="BackgroundImageFix" result="effect1_dropShadow"/>
<feBlend mode="normal" in="SourceGraphic" in2="effect1_dropShadow" result="shape"/>
</filter>
<filter id="filter13_d" x="336.01" y="241.832" width="55.6" height="40.3503" filterUnits="userSpaceOnUse" color-interpolation-filters="sRGB">
<feFlood flood-opacity="0" result="BackgroundImageFix"/>
<feColorMatrix in="SourceAlpha" type="matrix" values="0 0 0 0 0 0 0 0 0 0 0 0 0 0 0 0 0 0 127 0"/>
<feOffset dy="4"/>
<feGaussianBlur stdDeviation="2"/>
<feColorMatrix type="matrix" values="0 0 0 0 0 0 0 0 0 0 0 0 0 0 0 0 0 0 0.25 0"/>
<feBlend mode="normal" in2="BackgroundImageFix" result="effect1_dropShadow"/>
<feBlend mode="normal" in="SourceGraphic" in2="effect1_dropShadow" result="shape"/>
</filter>
<filter id="filter14_d" x="369.53" y="102.45" width="34.6874" height="76.38" filterUnits="userSpaceOnUse" color-interpolation-filters="sRGB">
<feFlood flood-opacity="0" result="BackgroundImageFix"/>
<feColorMatrix in="SourceAlpha" type="matrix" values="0 0 0 0 0 0 0 0 0 0 0 0 0 0 0 0 0 0 127 0"/>
<feOffset dy="4"/>
<feGaussianBlur stdDeviation="2"/>
<feColorMatrix type="matrix" values="0 0 0 0 0 0 0 0 0 0 0 0 0 0 0 0 0 0 0.25 0"/>
<feBlend mode="normal" in2="BackgroundImageFix" result="effect1_dropShadow"/>
<feBlend mode="normal" in="SourceGraphic" in2="effect1_dropShadow" result="shape"/>
</filter>
<filter id="filter15_d" x="381.99" y="44.44" width="16.6427" height="81.36" filterUnits="userSpaceOnUse" color-interpolation-filters="sRGB">
<feFlood flood-opacity="0" result="BackgroundImageFix"/>
<feColorMatrix in="SourceAlpha" type="matrix" values="0 0 0 0 0 0 0 0 0 0 0 0 0 0 0 0 0 0 127 0"/>
<feOffset dy="4"/>
<feGaussianBlur stdDeviation="2"/>
<feColorMatrix type="matrix" values="0 0 0 0 0 0 0 0 0 0 0 0 0 0 0 0 0 0 0.25 0"/>
<feBlend mode="normal" in2="BackgroundImageFix" result="effect1_dropShadow"/>
<feBlend mode="normal" in="SourceGraphic" in2="effect1_dropShadow" result="shape"/>
</filter>
<filter id="filter16_d" x="261.06" y="594.473" width="51.31" height="36.9645" filterUnits="userSpaceOnUse" color-interpolation-filters="sRGB">
<feFlood flood-opacity="0" result="BackgroundImageFix"/>
<feColorMatrix in="SourceAlpha" type="matrix" values="0 0 0 0 0 0 0 0 0 0 0 0 0 0 0 0 0 0 127 0"/>
<feOffset dy="4"/>
<feGaussianBlur stdDeviation="2"/>
<feColorMatrix type="matrix" values="0 0 0 0 0 0 0 0 0 0 0 0 0 0 0 0 0 0 0.25 0"/>
<feBlend mode="normal" in2="BackgroundImageFix" result="effect1_dropShadow"/>
<feBlend mode="normal" in="SourceGraphic" in2="effect1_dropShadow" result="shape"/>
</filter>
<filter id="filter17_d" x="245.99" y="553.685" width="55.45" height="39.5635" filterUnits="userSpaceOnUse" color-interpolation-filters="sRGB">
<feFlood flood-opacity="0" result="BackgroundImageFix"/>
<feColorMatrix in="SourceAlpha" type="matrix" values="0 0 0 0 0 0 0 0 0 0 0 0 0 0 0 0 0 0 127 0"/>
<feOffset dy="4"/>
<feGaussianBlur stdDeviation="2"/>
<feColorMatrix type="matrix" values="0 0 0 0 0 0 0 0 0 0 0 0 0 0 0 0 0 0 0.25 0"/>
<feBlend mode="normal" in2="BackgroundImageFix" result="effect1_dropShadow"/>
<feBlend mode="normal" in="SourceGraphic" in2="effect1_dropShadow" result="shape"/>
</filter>
<filter id="filter18_d" x="232.16" y="510.06" width="62" height="31.2579" filterUnits="userSpaceOnUse" color-interpolation-filters="sRGB">
<feFlood flood-opacity="0" result="BackgroundImageFix"/>
<feColorMatrix in="SourceAlpha" type="matrix" values="0 0 0 0 0 0 0 0 0 0 0 0 0 0 0 0 0 0 127 0"/>
<feOffset dy="4"/>
<feGaussianBlur stdDeviation="2"/>
<feColorMatrix type="matrix" values="0 0 0 0 0 0 0 0 0 0 0 0 0 0 0 0 0 0 0.25 0"/>
<feBlend mode="normal" in2="BackgroundImageFix" result="effect1_dropShadow"/>
<feBlend mode="normal" in="SourceGraphic" in2="effect1_dropShadow" result="shape"/>
</filter>
<filter id="filter19_d" x="230.54" y="469.302" width="60.93" height="31.7224" filterUnits="userSpaceOnUse" color-interpolation-filters="sRGB">
<feFlood flood-opacity="0" result="BackgroundImageFix"/>
<feColorMatrix in="SourceAlpha" type="matrix" values="0 0 0 0 0 0 0 0 0 0 0 0 0 0 0 0 0 0 127 0"/>
<feOffset dy="4"/>
<feGaussianBlur stdDeviation="2"/>
<feColorMatrix type="matrix" values="0 0 0 0 0 0 0 0 0 0 0 0 0 0 0 0 0 0 0.25 0"/>
<feBlend mode="normal" in2="BackgroundImageFix" result="effect1_dropShadow"/>
<feBlend mode="normal" in="SourceGraphic" in2="effect1_dropShadow" result="shape"/>
</filter>
<filter id="filter20_d" x="237.54" y="423.353" width="56.62" height="40.6632" filterUnits="userSpaceOnUse" color-interpolation-filters="sRGB">
<feFlood flood-opacity="0" result="BackgroundImageFix"/>
<feColorMatrix in="SourceAlpha" type="matrix" values="0 0 0 0 0 0 0 0 0 0 0 0 0 0 0 0 0 0 127 0"/>
<feOffset dy="4"/>
<feGaussianBlur stdDeviation="2"/>
<feColorMatrix type="matrix" values="0 0 0 0 0 0 0 0 0 0 0 0 0 0 0 0 0 0 0.25 0"/>
<feBlend mode="normal" in2="BackgroundImageFix" result="effect1_dropShadow"/>
<feBlend mode="normal" in="SourceGraphic" in2="effect1_dropShadow" result="shape"/>
</filter>
<filter id="filter21_d" x="268.9" y="328.46" width="41.95" height="61.75" filterUnits="userSpaceOnUse" color-interpolation-filters="sRGB">
<feFlood flood-opacity="0" result="BackgroundImageFix"/>
<feColorMatrix in="SourceAlpha" type="matrix" values="0 0 0 0 0 0 0 0 0 0 0 0 0 0 0 0 0 0 127 0"/>
<feOffset dy="4"/>
<feGaussianBlur stdDeviation="2"/>
<feColorMatrix type="matrix" values="0 0 0 0 0 0 0 0 0 0 0 0 0 0 0 0 0 0 0.25 0"/>
<feBlend mode="normal" in2="BackgroundImageFix" result="effect1_dropShadow"/>
<feBlend mode="normal" in="SourceGraphic" in2="effect1_dropShadow" result="shape"/>
</filter>
<filter id="filter22_d" x="284.9" y="288.72" width="33.5" height="68" filterUnits="userSpaceOnUse" color-interpolation-filters="sRGB">
<feFlood flood-opacity="0" result="BackgroundImageFix"/>
<feColorMatrix in="SourceAlpha" type="matrix" values="0 0 0 0 0 0 0 0 0 0 0 0 0 0 0 0 0 0 127 0"/>
<feOffset dy="4"/>
<feGaussianBlur stdDeviation="2"/>
<feColorMatrix type="matrix" values="0 0 0 0 0 0 0 0 0 0 0 0 0 0 0 0 0 0 0.25 0"/>
<feBlend mode="normal" in2="BackgroundImageFix" result="effect1_dropShadow"/>
<feBlend mode="normal" in="SourceGraphic" in2="effect1_dropShadow" result="shape"/>
</filter>
<filter id="filter23_d" x="297.64" y="254.11" width="37" height="66" filterUnits="userSpaceOnUse" color-interpolation-filters="sRGB">
<feFlood flood-opacity="0" result="BackgroundImageFix"/>
<feColorMatrix in="SourceAlpha" type="matrix" values="0 0 0 0 0 0 0 0 0 0 0 0 0 0 0 0 0 0 127 0"/>
<feOffset dy="4"/>
<feGaussianBlur stdDeviation="2"/>
<feColorMatrix type="matrix" values="0 0 0 0 0 0 0 0 0 0 0 0 0 0 0 0 0 0 0.25 0"/>
<feBlend mode="normal" in2="BackgroundImageFix" result="effect1_dropShadow"/>
<feBlend mode="normal" in="SourceGraphic" in2="effect1_dropShadow" result="shape"/>
</filter>
<filter id="filter24_d" x="324.369" y="217.02" width="23.6613" height="64.31" filterUnits="userSpaceOnUse" color-interpolation-filters="sRGB">
<feFlood flood-opacity="0" result="BackgroundImageFix"/>
<feColorMatrix in="SourceAlpha" type="matrix" values="0 0 0 0 0 0 0 0 0 0 0 0 0 0 0 0 0 0 127 0"/>
<feOffset dy="4"/>
<feGaussianBlur stdDeviation="2"/>
<feColorMatrix type="matrix" values="0 0 0 0 0 0 0 0 0 0 0 0 0 0 0 0 0 0 0.25 0"/>
<feBlend mode="normal" in2="BackgroundImageFix" result="effect1_dropShadow"/>
<feBlend mode="normal" in="SourceGraphic" in2="effect1_dropShadow" result="shape"/>
</filter>
<filter id="filter25_d" x="334.895" y="181.91" width="24.4252" height="62.88" filterUnits="userSpaceOnUse" color-interpolation-filters="sRGB">
<feFlood flood-opacity="0" result="BackgroundImageFix"/>
<feColorMatrix in="SourceAlpha" type="matrix" values="0 0 0 0 0 0 0 0 0 0 0 0 0 0 0 0 0 0 127 0"/>
<feOffset dy="4"/>
<feGaussianBlur stdDeviation="2"/>
<feColorMatrix type="matrix" values="0 0 0 0 0 0 0 0 0 0 0 0 0 0 0 0 0 0 0.25 0"/>
<feBlend mode="normal" in2="BackgroundImageFix" result="effect1_dropShadow"/>
<feBlend mode="normal" in="SourceGraphic" in2="effect1_dropShadow" result="shape"/>
</filter>
<filter id="filter26_d" x="352.892" y="147.74" width="21.3279" height="61.12" filterUnits="userSpaceOnUse" color-interpolation-filters="sRGB">
<feFlood flood-opacity="0" result="BackgroundImageFix"/>
<feColorMatrix in="SourceAlpha" type="matrix" values="0 0 0 0 0 0 0 0 0 0 0 0 0 0 0 0 0 0 127 0"/>
<feOffset dy="4"/>
<feGaussianBlur stdDeviation="2"/>
<feColorMatrix type="matrix" values="0 0 0 0 0 0 0 0 0 0 0 0 0 0 0 0 0 0 0.25 0"/>
<feBlend mode="normal" in2="BackgroundImageFix" result="effect1_dropShadow"/>
<feBlend mode="normal" in="SourceGraphic" in2="effect1_dropShadow" result="shape"/>
</filter>
<filter id="filter27_d" x="357.954" y="96.72" width="21.8755" height="80.7" filterUnits="userSpaceOnUse" color-interpolation-filters="sRGB">
<feFlood flood-opacity="0" result="BackgroundImageFix"/>
<feColorMatrix in="SourceAlpha" type="matrix" values="0 0 0 0 0 0 0 0 0 0 0 0 0 0 0 0 0 0 127 0"/>
<feOffset dy="4"/>
<feGaussianBlur stdDeviation="2"/>
<feColorMatrix type="matrix" values="0 0 0 0 0 0 0 0 0 0 0 0 0 0 0 0 0 0 0.25 0"/>
<feBlend mode="normal" in2="BackgroundImageFix" result="effect1_dropShadow"/>
<feBlend mode="normal" in="SourceGraphic" in2="effect1_dropShadow" result="shape"/>
</filter>
<filter id="filter28_d" x="348.852" y="51.1" width="42.008" height="73" filterUnits="userSpaceOnUse" color-interpolation-filters="sRGB">
<feFlood flood-opacity="0" result="BackgroundImageFix"/>
<feColorMatrix in="SourceAlpha" type="matrix" values="0 0 0 0 0 0 0 0 0 0 0 0 0 0 0 0 0 0 127 0"/>
<feOffset dy="4"/>
<feGaussianBlur stdDeviation="2"/>
<feColorMatrix type="matrix" values="0 0 0 0 0 0 0 0 0 0 0 0 0 0 0 0 0 0 0.25 0"/>
<feBlend mode="normal" in2="BackgroundImageFix" result="effect1_dropShadow"/>
<feBlend mode="normal" in="SourceGraphic" in2="effect1_dropShadow" result="shape"/>
</filter>
<filter id="filter29_d" x="342.03" y="21.31" width="44.12" height="71.57" filterUnits="userSpaceOnUse" color-interpolation-filters="sRGB">
<feFlood flood-opacity="0" result="BackgroundImageFix"/>
<feColorMatrix in="SourceAlpha" type="matrix" values="0 0 0 0 0 0 0 0 0 0 0 0 0 0 0 0 0 0 127 0"/>
<feOffset dy="4"/>
<feGaussianBlur stdDeviation="2"/>
<feColorMatrix type="matrix" values="0 0 0 0 0 0 0 0 0 0 0 0 0 0 0 0 0 0 0.25 0"/>
<feBlend mode="normal" in2="BackgroundImageFix" result="effect1_dropShadow"/>
<feBlend mode="normal" in="SourceGraphic" in2="effect1_dropShadow" result="shape"/>
</filter>
<filter id="filter30_d" x="347.18" y="153.17" width="304.4" height="610.39" filterUnits="userSpaceOnUse" color-interpolation-filters="sRGB">
<feFlood flood-opacity="0" result="BackgroundImageFix"/>
<feColorMatrix in="SourceAlpha" type="matrix" values="0 0 0 0 0 0 0 0 0 0 0 0 0 0 0 0 0 0 127 0"/>
<feOffset dy="4"/>
<feGaussianBlur stdDeviation="2"/>
<feColorMatrix type="matrix" values="0 0 0 0 0 0 0 0 0 0 0 0 0 0 0 0 0 0 0.25 0"/>
<feBlend mode="normal" in2="BackgroundImageFix" result="effect1_dropShadow"/>
<feBlend mode="normal" in="SourceGraphic" in2="effect1_dropShadow" result="shape"/>
</filter>
<filter id="filter31_d" x="671.108" y="126.64" width="84.6803" height="77.1896" filterUnits="userSpaceOnUse" color-interpolation-filters="sRGB">
<feFlood flood-opacity="0" result="BackgroundImageFix"/>
<feColorMatrix in="SourceAlpha" type="matrix" values="0 0 0 0 0 0 0 0 0 0 0 0 0 0 0 0 0 0 127 0"/>
<feOffset dy="4"/>
<feGaussianBlur stdDeviation="2"/>
<feColorMatrix type="matrix" values="0 0 0 0 0 0 0 0 0 0 0 0 0 0 0 0 0 0 0.25 0"/>
<feBlend mode="normal" in2="BackgroundImageFix" result="effect1_dropShadow"/>
<feBlend mode="normal" in="SourceGraphic" in2="effect1_dropShadow" result="shape"/>
</filter>
<filter id="filter32_d" x="625.909" y="100.461" width="42.6442" height="39.2692" filterUnits="userSpaceOnUse" color-interpolation-filters="sRGB">
<feFlood flood-opacity="0" result="BackgroundImageFix"/>
<feColorMatrix in="SourceAlpha" type="matrix" values="0 0 0 0 0 0 0 0 0 0 0 0 0 0 0 0 0 0 127 0"/>
<feOffset dy="4"/>
<feGaussianBlur stdDeviation="2"/>
<feColorMatrix type="matrix" values="0 0 0 0 0 0 0 0 0 0 0 0 0 0 0 0 0 0 0.25 0"/>
<feBlend mode="normal" in2="BackgroundImageFix" result="effect1_dropShadow"/>
<feBlend mode="normal" in="SourceGraphic" in2="effect1_dropShadow" result="shape"/>
</filter>
<filter id="filter33_d" x="429.864" y="488.73" width="151.506" height="132.976" filterUnits="userSpaceOnUse" color-interpolation-filters="sRGB">
<feFlood flood-opacity="0" result="BackgroundImageFix"/>
<feColorMatrix in="SourceAlpha" type="matrix" values="0 0 0 0 0 0 0 0 0 0 0 0 0 0 0 0 0 0 127 0"/>
<feOffset dy="4"/>
<feGaussianBlur stdDeviation="2"/>
<feColorMatrix type="matrix" values="0 0 0 0 0 0 0 0 0 0 0 0 0 0 0 0 0 0 0.25 0"/>
<feBlend mode="normal" in2="BackgroundImageFix" result="effect1_dropShadow"/>
<feBlend mode="normal" in="SourceGraphic" in2="effect1_dropShadow" result="shape"/>
</filter>
<filter id="filter34_d" x="487.46" y="529.06" width="29.51" height="105.74" filterUnits="userSpaceOnUse" color-interpolation-filters="sRGB">
<feFlood flood-opacity="0" result="BackgroundImageFix"/>
<feColorMatrix in="SourceAlpha" type="matrix" values="0 0 0 0 0 0 0 0 0 0 0 0 0 0 0 0 0 0 127 0"/>
<feOffset dy="4"/>
<feGaussianBlur stdDeviation="2"/>
<feColorMatrix type="matrix" values="0 0 0 0 0 0 0 0 0 0 0 0 0 0 0 0 0 0 0.25 0"/>
<feBlend mode="normal" in2="BackgroundImageFix" result="effect1_dropShadow"/>
<feBlend mode="normal" in="SourceGraphic" in2="effect1_dropShadow" result="shape"/>
</filter>
<filter id="filter35_d" x="405.01" y="610.62" width="98.3617" height="158.38" filterUnits="userSpaceOnUse" color-interpolation-filters="sRGB">
<feFlood flood-opacity="0" result="BackgroundImageFix"/>
<feColorMatrix in="SourceAlpha" type="matrix" values="0 0 0 0 0 0 0 0 0 0 0 0 0 0 0 0 0 0 127 0"/>
<feOffset dy="4"/>
<feGaussianBlur stdDeviation="2"/>
<feColorMatrix type="matrix" values="0 0 0 0 0 0 0 0 0 0 0 0 0 0 0 0 0 0 0.25 0"/>
<feBlend mode="normal" in2="BackgroundImageFix" result="effect1_dropShadow"/>
<feBlend mode="normal" in="SourceGraphic" in2="effect1_dropShadow" result="shape"/>
</filter>
<filter id="filter36_d" x="394.579" y="764.652" width="50.1931" height="49.8113" filterUnits="userSpaceOnUse" color-interpolation-filters="sRGB">
<feFlood flood-opacity="0" result="BackgroundImageFix"/>
<feColorMatrix in="SourceAlpha" type="matrix" values="0 0 0 0 0 0 0 0 0 0 0 0 0 0 0 0 0 0 127 0"/>
<feOffset dy="4"/>
<feGaussianBlur stdDeviation="2"/>
<feColorMatrix type="matrix" values="0 0 0 0 0 0 0 0 0 0 0 0 0 0 0 0 0 0 0.25 0"/>
<feBlend mode="normal" in2="BackgroundImageFix" result="effect1_dropShadow"/>
<feBlend mode="normal" in="SourceGraphic" in2="effect1_dropShadow" result="shape"/>
</filter>
<filter id="filter37_d" x="498.23" y="611.67" width="95.5403" height="158.33" filterUnits="userSpaceOnUse" color-interpolation-filters="sRGB">
<feFlood flood-opacity="0" result="BackgroundImageFix"/>
<feColorMatrix in="SourceAlpha" type="matrix" values="0 0 0 0 0 0 0 0 0 0 0 0 0 0 0 0 0 0 127 0"/>
<feOffset dy="4"/>
<feGaussianBlur stdDeviation="2"/>
<feColorMatrix type="matrix" values="0 0 0 0 0 0 0 0 0 0 0 0 0 0 0 0 0 0 0.25 0"/>
<feBlend mode="normal" in2="BackgroundImageFix" result="effect1_dropShadow"/>
<feBlend mode="normal" in="SourceGraphic" in2="effect1_dropShadow" result="shape"/>
</filter>
<filter id="filter38_d" x="554.033" y="765.642" width="50.1881" height="49.8201" filterUnits="userSpaceOnUse" color-interpolation-filters="sRGB">
<feFlood flood-opacity="0" result="BackgroundImageFix"/>
<feColorMatrix in="SourceAlpha" type="matrix" values="0 0 0 0 0 0 0 0 0 0 0 0 0 0 0 0 0 0 127 0"/>
<feOffset dy="4"/>
<feGaussianBlur stdDeviation="2"/>
<feColorMatrix type="matrix" values="0 0 0 0 0 0 0 0 0 0 0 0 0 0 0 0 0 0 0.25 0"/>
<feBlend mode="normal" in2="BackgroundImageFix" result="effect1_dropShadow"/>
<feBlend mode="normal" in="SourceGraphic" in2="effect1_dropShadow" result="shape"/>
</filter>
<filter id="filter39_d" x="479.49" y="479.281" width="53.1098" height="47.8889" filterUnits="userSpaceOnUse" color-interpolation-filters="sRGB">
<feFlood flood-opacity="0" result="BackgroundImageFix"/>
<feColorMatrix in="SourceAlpha" type="matrix" values="0 0 0 0 0 0 0 0 0 0 0 0 0 0 0 0 0 0 127 0"/>
<feOffset dy="4"/>
<feGaussianBlur stdDeviation="2"/>
<feColorMatrix type="matrix" values="0 0 0 0 0 0 0 0 0 0 0 0 0 0 0 0 0 0 0.25 0"/>
<feBlend mode="normal" in2="BackgroundImageFix" result="effect1_dropShadow"/>
<feBlend mode="normal" in="SourceGraphic" in2="effect1_dropShadow" result="shape"/>
</filter>
<filter id="filter40_d" x="472.645" y="435.245" width="67.368" height="68.3076" filterUnits="userSpaceOnUse" color-interpolation-filters="sRGB">
<feFlood flood-opacity="0" result="BackgroundImageFix"/>
<feColorMatrix in="SourceAlpha" type="matrix" values="0 0 0 0 0 0 0 0 0 0 0 0 0 0 0 0 0 0 127 0"/>
<feOffset dy="4"/>
<feGaussianBlur stdDeviation="2"/>
<feColorMatrix type="matrix" values="0 0 0 0 0 0 0 0 0 0 0 0 0 0 0 0 0 0 0.25 0"/>
<feBlend mode="normal" in2="BackgroundImageFix" result="effect1_dropShadow"/>
<feBlend mode="normal" in="SourceGraphic" in2="effect1_dropShadow" result="shape"/>
</filter>
<filter id="filter41_d" x="464.674" y="416.039" width="81.8182" height="61.3611" filterUnits="userSpaceOnUse" color-interpolation-filters="sRGB">
<feFlood flood-opacity="0" result="BackgroundImageFix"/>
<feColorMatrix in="SourceAlpha" type="matrix" values="0 0 0 0 0 0 0 0 0 0 0 0 0 0 0 0 0 0 127 0"/>
<feOffset dy="4"/>
<feGaussianBlur stdDeviation="2"/>
<feColorMatrix type="matrix" values="0 0 0 0 0 0 0 0 0 0 0 0 0 0 0 0 0 0 0.25 0"/>
<feBlend mode="normal" in2="BackgroundImageFix" result="effect1_dropShadow"/>
<feBlend mode="normal" in="SourceGraphic" in2="effect1_dropShadow" result="shape"/>
</filter>
<filter id="filter42_d" x="486.479" y="617.32" width="52.9915" height="31.7419" filterUnits="userSpaceOnUse" color-interpolation-filters="sRGB">
<feFlood flood-opacity="0" result="BackgroundImageFix"/>
<feColorMatrix in="SourceAlpha" type="matrix" values="0 0 0 0 0 0 0 0 0 0 0 0 0 0 0 0 0 0 127 0"/>
<feOffset dy="4"/>
<feGaussianBlur stdDeviation="2"/>
<feColorMatrix type="matrix" values="0 0 0 0 0 0 0 0 0 0 0 0 0 0 0 0 0 0 0.25 0"/>
<feBlend mode="normal" in2="BackgroundImageFix" result="effect1_dropShadow"/>
<feBlend mode="normal" in="SourceGraphic" in2="effect1_dropShadow" result="shape"/>
</filter>
<filter id="filter43_d" x="518.35" y="539.67" width="65.25" height="106.25" filterUnits="userSpaceOnUse" color-interpolation-filters="sRGB">
<feFlood flood-opacity="0" result="BackgroundImageFix"/>
<feColorMatrix in="SourceAlpha" type="matrix" values="0 0 0 0 0 0 0 0 0 0 0 0 0 0 0 0 0 0 127 0"/>
<feOffset dy="4"/>
<feGaussianBlur stdDeviation="2"/>
<feColorMatrix type="matrix" values="0 0 0 0 0 0 0 0 0 0 0 0 0 0 0 0 0 0 0.25 0"/>
<feBlend mode="normal" in2="BackgroundImageFix" result="effect1_dropShadow"/>
<feBlend mode="normal" in="SourceGraphic" in2="effect1_dropShadow" result="shape"/>
</filter>
<filter id="filter44_d" x="461.97" y="622.17" width="49.0913" height="38.8397" filterUnits="userSpaceOnUse" color-interpolation-filters="sRGB">
<feFlood flood-opacity="0" result="BackgroundImageFix"/>
<feColorMatrix in="SourceAlpha" type="matrix" values="0 0 0 0 0 0 0 0 0 0 0 0 0 0 0 0 0 0 127 0"/>
<feOffset dy="4"/>
<feGaussianBlur stdDeviation="2"/>
<feColorMatrix type="matrix" values="0 0 0 0 0 0 0 0 0 0 0 0 0 0 0 0 0 0 0.25 0"/>
<feBlend mode="normal" in2="BackgroundImageFix" result="effect1_dropShadow"/>
<feBlend mode="normal" in="SourceGraphic" in2="effect1_dropShadow" result="shape"/>
</filter>
<filter id="filter45_d" x="422.446" y="545.17" width="66.4041" height="105.75" filterUnits="userSpaceOnUse" color-interpolation-filters="sRGB">
<feFlood flood-opacity="0" result="BackgroundImageFix"/>
<feColorMatrix in="SourceAlpha" type="matrix" values="0 0 0 0 0 0 0 0 0 0 0 0 0 0 0 0 0 0 127 0"/>
<feOffset dy="4"/>
<feGaussianBlur stdDeviation="2"/>
<feColorMatrix type="matrix" values="0 0 0 0 0 0 0 0 0 0 0 0 0 0 0 0 0 0 0.25 0"/>
<feBlend mode="normal" in2="BackgroundImageFix" result="effect1_dropShadow"/>
<feBlend mode="normal" in="SourceGraphic" in2="effect1_dropShadow" result="shape"/>
</filter>
<filter id="filter46_d" x="503.85" y="492.17" width="37.69" height="42.25" filterUnits="userSpaceOnUse" color-interpolation-filters="sRGB">
<feFlood flood-opacity="0" result="BackgroundImageFix"/>
<feColorMatrix in="SourceAlpha" type="matrix" values="0 0 0 0 0 0 0 0 0 0 0 0 0 0 0 0 0 0 127 0"/>
<feOffset dy="4"/>
<feGaussianBlur stdDeviation="2"/>
<feColorMatrix type="matrix" values="0 0 0 0 0 0 0 0 0 0 0 0 0 0 0 0 0 0 0.25 0"/>
<feBlend mode="normal" in2="BackgroundImageFix" result="effect1_dropShadow"/>
<feBlend mode="normal" in="SourceGraphic" in2="effect1_dropShadow" result="shape"/>
</filter>
<filter id="filter47_d" x="470.6" y="488.73" width="41.25" height="45.69" filterUnits="userSpaceOnUse" color-interpolation-filters="sRGB">
<feFlood flood-opacity="0" result="BackgroundImageFix"/>
<feColorMatrix in="SourceAlpha" type="matrix" values="0 0 0 0 0 0 0 0 0 0 0 0 0 0 0 0 0 0 127 0"/>
<feOffset dy="4"/>
<feGaussianBlur stdDeviation="2"/>
<feColorMatrix type="matrix" values="0 0 0 0 0 0 0 0 0 0 0 0 0 0 0 0 0 0 0.25 0"/>
<feBlend mode="normal" in2="BackgroundImageFix" result="effect1_dropShadow"/>
<feBlend mode="normal" in="SourceGraphic" in2="effect1_dropShadow" result="shape"/>
</filter>
<linearGradient id="paint0_linear" x1="395.91" y1="610.78" x2="602.86" y2="610.78" gradientUnits="userSpaceOnUse">
<stop stop-color="#808080" stop-opacity="0.25"/>
<stop offset="0.54" stop-color="#808080" stop-opacity="0.12"/>
<stop offset="1" stop-color="#808080" stop-opacity="0.1"/>
</linearGradient>
<clipPath id="clip0">
<rect width="1010" height="840" fill="white"/>
</clipPath>
</defs>
</svg>
