<svg width="999" height="798" viewBox="0 0 999 798" fill="none" xmlns="http://www.w3.org/2000/svg">
<g clip-path="url(#clip0)">
<path opacity="0.1" d="M321.21 31.27C351.99 3.84001 400.32 -1.72999 444.3 0.430011C582.46 7.30001 707.17 73.99 815.04 149.43C854.09 176.74 892.54 206.17 917.89 243.78C969.49 320.35 954.19 426.41 882.43 489.48C858.02 510.94 828.43 527.39 798.04 541.98C744.04 567.91 685.73 588.72 624.42 594.65C580.69 598.87 536.42 595.44 492.96 589.54C371.5 573.08 252.31 536.63 152.4 474.35C108.58 447.02 67.27 413.05 49.21 368.83C31.15 324.61 42.71 268.63 87.5 242.43C106.01 231.61 128.14 226.72 149.8 222.13C181.69 215.37 214.09 208.71 242.86 194.98C272.58 180.79 307.78 153.35 301.86 121.98C295.5 88.26 290.5 58.63 321.21 31.27Z" fill="#6D10FF"/>
<path opacity="0.1" d="M174.08 160.9C191.477 160.9 205.58 146.797 205.58 129.4C205.58 112.003 191.477 97.9 174.08 97.9C156.683 97.9 142.58 112.003 142.58 129.4C142.58 146.797 156.683 160.9 174.08 160.9Z" fill="#6D10FF"/>
<path opacity="0.1" d="M108.09 73.9C118.86 73.9 127.59 65.1696 127.59 54.4C127.59 43.6305 118.86 34.9 108.09 34.9C97.3204 34.9 88.59 43.6305 88.59 54.4C88.59 65.1696 97.3204 73.9 108.09 73.9Z" fill="#6D10FF"/>
<path opacity="0.1" d="M925.57 126.4C932.197 126.4 937.57 121.027 937.57 114.4C937.57 107.773 932.197 102.4 925.57 102.4C918.943 102.4 913.57 107.773 913.57 114.4C913.57 121.027 918.943 126.4 925.57 126.4Z" fill="#6D10FF"/>
<path opacity="0.1" d="M689.92 797.25C736.444 797.25 774.16 793.489 774.16 788.85C774.16 784.211 736.444 780.45 689.92 780.45C643.396 780.45 605.68 784.211 605.68 788.85C605.68 793.489 643.396 797.25 689.92 797.25Z" fill="#2271FF"/>
<path d="M214 487.31L213.63 507.26L210.67 668.97L185.33 728.31L98 729.31V496.5L189.14 489.28L214 487.31Z" fill="#5F5D7E"/>
<g opacity="0.1" filter="url(#filter0_d)">
<path d="M214 487.31L213.63 507.26L210.67 668.97L185.33 728.31L98 729.31V496.5L189.14 489.28L214 487.31Z" fill="black"/>
</g>
<path d="M214 487.31L213.63 507.26L210.67 668.97L185.33 728.31L192 507.64L191.98 507.5L189.14 489.28L214 487.31Z" fill="#5F5D7E"/>
<path opacity="0.1" d="M189.14 489.28L214 487.31L213.63 507.26L191.98 507.5L98 508.55V496.5L189.14 489.28Z" fill="black"/>
<g filter="url(#filter1_d)">
<path d="M999 496.5V727.97H978.67L897.33 668.64V489.97L970 483.14L974.46 485.19L978.67 487.13L999 496.5Z" fill="#5F5D7E"/>
</g>
<path opacity="0.1" d="M999 485.19H978.67V727.97H999V485.19Z" fill="black"/>
<path opacity="0.1" d="M999 485.19V498.5L978.67 498.73L897.33 499.63V489.97L970 483.14L974.46 485.19L978.67 487.13V485.19H999Z" fill="black"/>
<g filter="url(#filter2_d)">
<path d="M999 477.64V496.5L0 507.64V483.64L94 464.64L912 458.64L999 477.64Z" fill="#5F5D7E"/>
</g>
<path opacity="0.1" d="M999 477.64V496.5L0 507.64V483.64L999 477.64Z" fill="black"/>
<g filter="url(#filter3_d)">
<path d="M692.6 194.97H388.32C375.717 194.97 365.5 205.187 365.5 217.79V443.84C365.5 456.443 375.717 466.66 388.32 466.66H692.6C705.203 466.66 715.42 456.443 715.42 443.84V217.79C715.42 205.187 705.203 194.97 692.6 194.97Z" fill="#474157"/>
</g>
<path d="M687.78 219.48H393.66V441.11H687.78V219.48Z" fill="#EDEDF4"/>
<path d="M382.18 335.11C384.842 335.11 387 332.952 387 330.29C387 327.628 384.842 325.47 382.18 325.47C379.518 325.47 377.36 327.628 377.36 330.29C377.36 332.952 379.518 335.11 382.18 335.11Z" fill="#E6E8EC"/>
<path d="M700.81 338.76C705.201 338.76 708.76 335.201 708.76 330.81C708.76 326.419 705.201 322.86 700.81 322.86C696.419 322.86 692.86 326.419 692.86 330.81C692.86 335.201 696.419 338.76 700.81 338.76Z" fill="#E6E8EC"/>
<path d="M572.43 331.15L534.82 308.29C534.039 307.857 533.158 307.636 532.265 307.647C531.372 307.658 530.498 307.902 529.727 308.354C528.957 308.806 528.318 309.451 527.873 310.226C527.428 311 527.193 311.877 527.19 312.77V357.23C527.193 358.123 527.428 359 527.873 359.774C528.318 360.549 528.957 361.194 529.727 361.646C530.498 362.098 531.372 362.342 532.265 362.353C533.158 362.364 534.039 362.143 534.82 361.71L572.43 340.13C573.227 339.682 573.891 339.03 574.352 338.241C574.814 337.452 575.058 336.554 575.058 335.64C575.058 334.726 574.814 333.828 574.352 333.039C573.891 332.25 573.227 331.598 572.43 331.15ZM600.71 335C600.71 324.518 597.602 314.271 591.778 305.555C585.954 296.839 577.677 290.046 567.992 286.034C558.308 282.023 547.651 280.973 537.37 283.018C527.089 285.063 517.645 290.111 510.233 297.523C502.821 304.936 497.773 314.379 495.728 324.66C493.683 334.941 494.733 345.598 498.744 355.282C502.756 364.967 509.549 373.244 518.265 379.068C526.981 384.892 537.228 388 547.71 388C561.766 388 575.247 382.416 585.187 372.477C595.126 362.537 600.71 349.056 600.71 335ZM504.97 335C504.97 326.547 507.477 318.284 512.173 311.255C516.869 304.226 523.544 298.748 531.354 295.513C539.164 292.279 547.757 291.432 556.048 293.081C564.339 294.73 571.954 298.801 577.932 304.778C583.909 310.756 587.98 318.371 589.629 326.662C591.278 334.953 590.431 343.546 587.197 351.356C583.962 359.166 578.484 365.841 571.455 370.537C564.426 375.233 556.163 377.74 547.71 377.74C542.097 377.741 536.539 376.637 531.353 374.489C526.166 372.342 521.454 369.194 517.485 365.225C513.516 361.256 510.368 356.544 508.221 351.357C506.073 346.171 504.969 340.613 504.97 335Z" fill="#6D10FF"/>
<path d="M803.88 509.14C803.68 507.917 803.299 506.731 802.75 505.62C803.51 503.03 804 501.44 804 501.44C804 501.44 804 501.06 803.88 500.44C803.284 496.776 801.38 493.452 798.521 491.083C795.662 488.715 792.041 487.463 788.33 487.56C782.33 487.67 770.95 488.07 758.33 489.49C759.05 484.44 759.91 478.4 760.81 472.18L762.46 472.36C762.84 472.36 763.24 472.36 763.64 472.42H764.17C765.485 472.502 766.786 472.104 767.83 471.3C768.086 471.051 768.276 470.743 768.384 470.403C768.491 470.062 768.513 469.701 768.446 469.35C768.38 468.999 768.228 468.671 768.003 468.393C767.779 468.116 767.489 467.898 767.16 467.76C768.635 467.907 770.123 467.684 771.49 467.111C772.857 466.539 774.06 465.634 774.99 464.48C775.839 463.293 776.295 461.87 776.295 460.41C776.295 458.95 775.839 457.527 774.99 456.34C772.88 453.34 768.41 451.34 768.17 447.81C768.04 445.81 769.38 444.01 770.43 442.24C772.961 437.821 773.972 432.695 773.309 427.646C772.646 422.597 770.346 417.906 766.76 414.29C765.353 412.894 763.87 411.575 762.32 410.34C760.12 402.26 757.82 395.04 757.14 394.81C756.26 394.52 754.75 392.62 753.31 390.99C753.442 389.615 753.418 388.23 753.24 386.86C752.18 379.86 745.24 374.86 741.42 368.68C737.6 362.5 736.91 354.93 737.89 347.85C738.87 340.77 741.34 333.92 743.35 327.01C744.85 321.88 746.1 316.43 744.42 311.34C743.23 307.71 740.64 304.57 737.97 301.62C731.56 294.53 724.17 287.89 715.05 283.62C708.711 280.632 701.767 279.146 694.76 279.28H694.69L693.59 279.34L692.81 279.39L692.03 279.47L691.2 279.55C690.35 279.66 689.51 279.79 688.67 279.96C682.579 278.606 676.36 277.908 670.12 277.88H669.31C667.459 277.771 665.617 278.205 664.01 279.13C661.79 280.68 661.51 283.46 660.84 285.88C659.637 289.93 657.099 293.454 653.64 295.88C651.25 297.6 648.44 298.88 646.16 300.68C643.88 302.48 642.1 305.18 642.71 307.84C643.22 310.07 645.3 311.73 647.71 312.74C647.42 313.1 647.12 313.45 646.84 313.82C647.31 314.01 647.84 314.18 648.27 314.32C651.27 315.21 654.5 315.32 657.54 316.13C658.377 316.354 659.199 316.631 660 316.96C657.296 322.046 655.884 327.72 655.89 333.48C655.901 339.877 657.637 346.153 660.914 351.647C664.19 357.141 668.887 361.65 674.51 364.7C674.51 365.04 674.51 365.37 674.51 365.7C674.82 376.14 674.03 388.84 668.69 390.99C663.35 393.14 658.24 395.57 655.09 397.14L654.09 397.67C653.26 397.29 652.43 396.89 651.62 396.47C651.62 396.47 647.37 395.97 648.11 399.21C648.11 399.21 635.26 397.21 628.21 402.7C621.16 408.19 609.59 419.65 607.32 422.64C605.05 425.63 587.5 432.17 587.5 432.17C587.5 432.17 593.03 424.44 590.64 414.97C590.64 414.97 588 403.55 589.26 398.97C590.52 394.39 593.79 377.39 593.79 377.39C593.79 377.39 594.25 359.45 584.46 351.22C574.67 342.99 567.86 336.22 571.64 344.22C573.292 347.887 575.141 351.463 577.18 354.93C577.18 354.93 553.77 360.49 562.08 369.17C570.39 377.85 572.65 377.86 572.65 377.86C572.65 377.86 569.88 399.29 569.37 403.28C568.86 407.27 564.37 437.67 564.37 437.67C564.37 437.67 564.12 452.13 566.64 454.37C566.64 454.37 568.29 463.68 578.72 463.37C578.72 463.37 598.6 462.87 604.14 460.63C609.68 458.39 628.8 446.42 630.82 447.17C630.966 447.229 631.099 447.317 631.21 447.43C631.317 447.522 631.418 447.623 631.51 447.73C629.51 452.16 624.77 467.2 626.79 474.59C626.79 474.59 625.03 495.52 635.6 502.25C635.6 502.25 650.95 528.17 645.16 542.12C644.7 543.25 644.29 544.29 643.91 545.3C635.12 538.01 621.71 531.3 601.23 527.59C599.14 527.21 597.06 526.75 595 526.25C589.18 524.84 573.17 523.55 565.55 548.86C563.773 554.743 561.512 560.47 558.79 565.98C555.79 572.05 552.46 580.75 552.39 589.38C552.22 601.48 558.47 613.47 581.15 617.87C581.4 626.87 582.43 637.59 585.51 645.3C591.8 661 601.87 686.42 601.87 686.42C601.87 686.42 613.95 712.34 614.71 722.8C615.2 729.65 615.92 738.63 615.42 744.8C615.42 745.18 615.36 745.54 615.32 745.9C614.284 747.019 613.153 748.046 611.94 748.97C610.18 749.97 604.39 756.2 604.39 757.69C604.402 759.118 604.529 760.542 604.77 761.95C602.03 764.34 600.53 766.95 600.53 769.55C600.53 783.07 638.9 794.03 686.23 794.03C733.56 794.03 771.92 783.03 771.92 769.55C771.92 757.21 739.92 747.01 698.34 745.33C707.01 741.87 714.71 738.24 717.9 735.33C718.585 734.797 719.107 734.083 719.41 733.27L711.36 714.58C711.36 714.58 710.73 714.72 709.8 714.99L709.24 714.15C705.66 708.7 698.77 697.84 698.77 694.89C698.77 693.8 696.95 686.83 694.31 677.28V646.63C720.57 650.63 754.41 645.19 754.41 645.19L754.56 645.11H755.22V644.75C759.77 642.23 782.53 628.9 789.28 611.22C791.28 606.06 788.79 598.67 783.84 590.77C787.3 582.18 795.84 559.99 794.99 551.14C794.99 550.67 794.93 550.14 794.93 549.62C795.011 548.716 795.044 547.808 795.03 546.9C796.03 533.9 804.03 510.15 804.03 510.15C804.03 510.15 803.98 509.74 803.88 509.14ZM633.88 451.38C635.7 454.58 637.65 458.67 638.42 460.33C638.42 460.33 635.76 455.43 633.93 451.38H633.88ZM635.78 731.48L635.59 731.55V730.55C635.481 727.942 635.545 725.33 635.78 722.73C635.808 721.329 635.513 719.94 634.92 718.67C631.838 710.927 629.777 702.815 628.79 694.54C627.79 685.82 626.96 676.31 627.48 673.89C628.26 670.18 628.9 642.08 627.93 628.23L643.41 631.71L661.41 668.41C661.41 668.41 672.99 686.33 676.58 700.47V714.63C675.53 718.848 673.695 722.831 671.17 726.37C668.78 729.64 666.45 732.95 664.29 736.37C663.63 737.43 662.9 738.52 662.17 739.54C661.93 739.54 650.1 740.23 648.09 742.45C646.85 743.82 644.69 745.98 644.33 748.15L643.82 748.23C641.5 741.32 635.83 731.48 635.83 731.48H635.78Z" fill="url(#paint0_linear)"/>
<path opacity="0.1" d="M711.93 718.63L707.93 731.63L690.93 746.38L665.93 753.56C665.93 753.56 654.18 747.13 658.18 745.88C659.29 745.53 660.61 744.26 661.95 742.6C660.55 747.7 671.68 741.13 671.68 741.13C671.68 741.13 700.43 720.63 703.43 718.38C705.397 717.075 707.557 716.087 709.83 715.45C711.08 717.4 711.93 718.63 711.93 718.63Z" fill="black"/>
<path d="M711.93 718.63L707.93 731.63L690.93 746.38L665.93 753.56C665.93 753.56 654.18 747.13 658.18 745.88C659.29 745.53 660.61 744.26 661.95 742.6C663.157 741.06 664.272 739.451 665.29 737.78C667.43 734.34 669.75 731.02 672.12 727.78C675.578 722.858 677.747 717.147 678.43 711.17C680.18 697.42 662.43 669.67 662.43 669.67L630.18 603.42L675.18 608.92C675.18 608.92 699.43 692.17 699.43 696.17C699.43 699.17 706.27 710.02 709.83 715.49C711.08 717.4 711.93 718.63 711.93 718.63Z" fill="#FDC2CC"/>
<g filter="url(#filter4_d)">
<path d="M686.97 795.6C733.98 795.6 772.09 784.609 772.09 771.05C772.09 757.491 733.98 746.5 686.97 746.5C639.959 746.5 601.85 757.491 601.85 771.05C601.85 784.609 639.959 795.6 686.97 795.6Z" fill="#5F5D7E"/>
</g>
<path d="M719.93 734.63C719.626 735.443 719.108 736.158 718.43 736.7C712.25 742.37 689.14 750.8 674.86 755.38C671.117 756.686 667.3 757.772 663.43 758.63C659.93 758.88 652.68 756.63 647.68 753.56C642.68 750.49 647.18 746.13 649.2 743.88C651.22 741.63 663.2 740.96 663.2 740.96C657.45 750.53 671.69 742.13 671.69 742.13C671.69 742.13 700.44 721.63 703.44 719.38C706.44 717.13 711.94 715.88 711.94 715.88L719.93 734.63Z" fill="#2271FF"/>
<path opacity="0.3" d="M719.93 734.63C719.626 735.443 719.108 736.158 718.43 736.7C712.25 742.37 689.14 750.8 674.86 755.38C671.117 756.686 667.3 757.772 663.43 758.63C659.93 758.88 652.68 756.63 647.68 753.56C642.68 750.49 647.18 746.13 649.2 743.88C651.22 741.63 663.2 740.96 663.2 740.96C657.45 750.53 671.69 742.13 671.69 742.13C671.69 742.13 700.44 721.63 703.44 719.38C706.44 717.13 711.94 715.88 711.94 715.88L719.93 734.63Z" fill="black"/>
<path opacity="0.1" d="M718.43 736.72C712.25 742.39 689.14 750.82 674.86 755.4C687.8 744.44 709.5 738.71 718.43 736.72Z" fill="black"/>
<path opacity="0.1" d="M686.97 768.05C696.375 768.05 704 765.852 704 763.14C704 760.428 696.375 758.23 686.97 758.23C677.565 758.23 669.94 760.428 669.94 763.14C669.94 765.852 677.565 768.05 686.97 768.05Z" fill="black"/>
<path d="M695 633.64H677.5V763.14H695V633.64Z" fill="#5F5D7E"/>
<path opacity="0.1" d="M695 640.06V655.06C691.5 653.98 683.51 649.43 677.5 645.85V633.63H681.15L695 640.06Z" fill="black"/>
<path d="M653.77 577.26C653.77 577.26 711.55 562.39 725.93 551.26C740.31 540.13 796.78 592.5 789.32 612.26C781.86 632.02 754.7 646.33 754.7 646.33C754.7 646.33 679.59 658.55 666.8 633.06C654.01 607.57 653.77 577.26 653.77 577.26Z" fill="#474157"/>
<path opacity="0.1" d="M653.77 577.26C653.77 577.26 711.55 562.39 725.93 551.26C740.31 540.13 796.78 592.5 789.32 612.26C781.86 632.02 754.7 646.33 754.7 646.33C754.7 646.33 679.59 658.55 666.8 633.06C654.01 607.57 653.77 577.26 653.77 577.26Z" fill="black"/>
<path d="M648.77 571.26C648.77 571.26 706.55 556.39 720.93 545.26C735.31 534.13 791.78 586.5 784.32 606.26C776.86 626.02 749.7 640.33 749.7 640.33C749.7 640.33 674.59 652.55 661.8 627.06C649.01 601.57 648.77 571.26 648.77 571.26Z" fill="#474157"/>
<g filter="url(#filter5_d)">
<path d="M595.18 434.9L588.93 432.63C588.93 432.63 594.43 424.88 592.06 415.38C592.06 415.38 589.43 403.92 590.68 399.28C591.93 394.64 595.18 377.63 595.18 377.63C595.18 377.63 595.64 359.63 585.91 351.38C576.18 343.13 569.43 336.38 573.18 344.38C574.818 348.06 576.654 351.649 578.68 355.13C578.68 355.13 555.43 360.7 563.68 369.42C571.93 378.14 574.18 378.13 574.18 378.13C574.18 378.13 571.43 399.63 570.93 403.63C570.43 407.63 565.93 438.13 565.93 438.13C565.93 438.13 565.68 452.63 568.18 454.88C568.735 457.587 570.262 459.997 572.473 461.656C574.684 463.314 577.426 464.105 580.18 463.88C581.96 463.85 603.18 440.4 595.18 434.9Z" fill="#FDC2CC"/>
</g>
<path d="M746.18 388.9V402.9L731.68 407.63L706.98 425.81L700.43 430.63L671.18 418.88L652.68 399.38C652.68 399.38 653.58 398.89 655.14 398.08L656.14 397.55C659.27 395.98 664.2 393.55 669.65 391.38C675.1 389.21 675.74 376.49 675.43 366.01V365.01C675.18 357.66 674.43 351.65 674.43 351.65C674.43 351.65 677.48 351.07 681.92 350.41C694.23 348.58 717.2 346.11 715.18 353.65C714.59 356.213 714.59 358.877 715.18 361.44C715.24 361.72 715.3 362.01 715.37 362.29C717.45 371.38 723.89 380.9 723.89 380.9L743.89 388.1L744.45 388.3L746.18 388.9Z" fill="#FDC2CC"/>
<path d="M746.18 393.15V388.9C747.752 388.629 749.358 388.629 750.93 388.9C752.68 389.4 756 394.65 757.5 395.15C759 395.65 768.18 429.9 767.18 432.9C766.18 435.9 756.73 503.63 756.73 503.63L737.68 524.63L733.93 466.88L746.18 432.63V393.15Z" fill="#FDC2CC"/>
<path d="M647.43 550.4C647.43 550.4 630.02 554.15 632.23 559.65C634.44 565.15 644.18 565.4 644.18 565.4L647.43 550.4Z" fill="#FDC2CC"/>
<g filter="url(#filter6_d)">
<path d="M671.68 439.35L658.43 467.9L642.68 479.4L639.93 461.63C639.93 461.63 634.61 449.88 632.32 447.89C632.209 447.777 632.076 447.689 631.93 447.63C629.93 446.88 610.93 458.88 605.43 461.13C599.93 463.38 580.18 463.88 580.18 463.88L588.93 432.63C588.93 432.63 606.43 426.13 608.68 423.13C610.93 420.13 622.43 408.63 629.43 403.13C636.43 397.63 649.2 399.63 649.2 399.63L649.4 399.71L652.68 401.13L662.18 424.38L671.68 439.35Z" fill="#FDC2CC"/>
</g>
<path d="M636.93 724.15C636.695 726.756 636.631 729.375 636.74 731.99C636.81 734.78 636.93 737.15 636.93 737.15L631.18 749.15C631.18 749.15 611.43 755.65 614.68 752.9C615.81 751.95 616.39 749.48 616.68 746.21C617.17 740.03 616.46 731.02 615.97 724.15C615.22 713.65 603.22 687.65 603.22 687.65C603.22 687.65 593.22 662.15 586.97 646.4C580.72 630.65 582.97 602.15 582.97 602.15C582.97 602.15 583.97 580.65 588.47 574.15C592.97 567.65 610.47 565.4 610.47 565.4L618.68 592.63C618.68 592.63 625.43 618.13 627.93 621.88C630.43 625.63 629.68 670.38 628.68 675.13C628.17 677.56 629.03 687.13 629.99 695.85C630.97 704.144 633.013 712.278 636.07 720.05C636.667 721.333 636.961 722.736 636.93 724.15Z" fill="#FDC2CC"/>
<path opacity="0.1" d="M636.93 737.15L631.18 749.15C631.18 749.15 611.43 755.65 614.68 752.9C615.81 751.95 616.39 749.48 616.68 746.21C617.39 745.5 618.15 744.72 618.93 743.92C623.956 738.71 630.044 734.641 636.78 731.99C636.81 734.78 636.93 737.15 636.93 737.15Z" fill="black"/>
<path d="M645.95 755.01C645.956 755.057 645.956 755.104 645.95 755.15C644.95 759.9 628.45 766.4 628.45 766.4C628.45 766.4 617.95 768.15 611.95 769.65C611.491 769.774 611.014 769.818 610.54 769.78C605.91 769.43 605.7 760.52 605.7 759.15C605.7 757.78 611.45 751.4 613.2 750.4C615.179 748.759 617.037 746.978 618.76 745.07C623.892 739.756 630.105 735.606 636.98 732.9C636.98 732.9 646.75 750.08 645.95 755.01Z" fill="#2271FF"/>
<path opacity="0.3" d="M645.95 755.01C645.956 755.057 645.956 755.104 645.95 755.15C644.95 759.9 628.45 766.4 628.45 766.4C628.45 766.4 617.95 768.15 611.95 769.65C611.491 769.774 611.014 769.818 610.54 769.78C605.91 769.43 605.7 760.52 605.7 759.15C605.7 757.78 611.45 751.4 613.2 750.4C615.211 748.738 617.096 746.93 618.84 744.99C623.864 739.755 629.955 735.662 636.7 732.99L636.98 732.88C636.98 732.88 646.75 750.08 645.95 755.01Z" fill="black"/>
<path opacity="0.1" d="M645.95 755.01C645.956 755.057 645.956 755.104 645.95 755.15C644.95 759.9 628.45 766.4 628.45 766.4C628.45 766.4 617.95 768.15 611.95 769.65C611.491 769.774 611.014 769.818 610.54 769.78C615.98 766.05 629.17 757.1 630.95 756.9C632.73 756.7 641.5 754.18 645.95 755.01Z" fill="black"/>
<path opacity="0.1" d="M715.41 362.29C709.23 367.38 703.55 366.65 694.92 366.65C688.68 366.65 680.57 368.84 675.46 366.03C675.25 358.22 674.46 351.65 674.46 351.65C674.46 351.65 717.96 343.4 715.21 353.65C714.581 356.504 714.65 359.468 715.41 362.29Z" fill="black"/>
<g filter="url(#filter7_d)">
<path d="M728.43 333.69C728.43 343.171 724.663 352.265 717.959 358.969C711.255 365.674 702.161 369.44 692.68 369.44C691.76 369.44 690.84 369.44 689.94 369.34C683.007 368.805 676.381 366.26 670.873 362.017C665.364 357.773 661.213 352.016 658.927 345.449C656.641 338.882 656.32 331.792 658.002 325.045C659.685 318.298 663.299 312.189 668.401 307.465C673.502 302.74 679.871 299.607 686.727 298.447C693.583 297.287 700.628 298.152 707 300.935C713.372 303.718 718.794 308.299 722.602 314.117C726.41 319.935 728.439 326.737 728.44 333.69H728.43Z" fill="#FDC2CC"/>
</g>
<path opacity="0.1" d="M662.18 424.4L671.68 439.4L658.43 467.95L642.68 479.45L639.93 461.63C639.93 461.63 634.61 449.88 632.32 447.89C632.98 446.28 633.43 445.54 633.43 446.13C633.43 448.63 639.58 459.88 639.58 459.88C658.58 453.38 652.68 428.13 652.68 428.13C652.68 428.13 650.32 405.63 649.4 399.71L652.68 401.13L662.18 424.4Z" fill="black"/>
<path opacity="0.1" d="M746.18 388.9V402.9L731.68 407.63L706.98 425.81L700.43 430.63L671.18 418.88L652.68 399.38C652.68 399.38 653.58 398.89 655.14 398.08L656.14 397.55C669.01 403.4 682.94 405.55 692.89 406.32C697.466 406.708 702.061 406.811 706.65 406.63C744.32 400.63 745.44 391.53 744.5 388.3L746.18 388.9Z" fill="black"/>
<g filter="url(#filter8_d)">
<path d="M756.93 615.63C747.5 620.253 737.819 624.343 727.93 627.88C710.68 634.13 672.68 625.88 667.93 624.63C663.18 623.38 626.68 608.88 612.68 603.38C598.68 597.88 595.18 602.38 591.93 601.88C588.68 601.38 586.43 595.13 585.93 593.38C585.43 591.63 594.93 576.38 600.18 568.63C605.43 560.88 621.18 562.38 623.43 561.88C625.68 561.38 641.43 561.88 641.43 561.88C641.43 561.88 640.43 556.88 646.18 542.88C651.93 528.88 636.68 502.88 636.68 502.88C626.18 496.13 627.93 475.13 627.93 475.13C625.43 465.88 633.43 444.63 633.43 447.13C633.43 449.63 639.58 460.88 639.58 460.88C658.58 454.38 652.68 429.13 652.68 429.13C652.68 429.13 649.93 402.88 649.2 399.63C648.47 396.38 652.68 396.88 652.68 396.88C653.493 397.3 654.313 397.7 655.14 398.08C668.3 404.28 682.7 406.54 692.92 407.32C697.496 407.708 702.091 407.811 706.68 407.63C752.35 400.26 744.26 388.51 743.96 388.09L746.18 388.88C762.68 400.88 757.68 440.63 757.68 440.63L751.5 470.3L746.91 492.4C746.91 492.4 763.16 590.9 764.66 595.9C766.16 600.9 756.93 615.63 756.93 615.63Z" fill="#6D10FF"/>
</g>
<path opacity="0.1" d="M635.18 570.63C634.18 571.38 622.93 594.63 631.18 601.13C639.43 607.63 635.18 570.63 635.18 570.63Z" fill="black"/>
<path opacity="0.1" d="M643.18 573.9C643.43 574.65 666.68 611.65 679.43 614.65L643.18 573.9Z" fill="black"/>
<path opacity="0.1" d="M699.19 281.11L695.47 281.9C696.495 281.522 697.544 281.211 698.61 280.97L699.19 281.11Z" fill="black"/>
<path opacity="0.1" d="M755.21 440.63L748.21 470.28C744.639 468.651 741.356 466.452 738.49 463.77C736.26 461.65 734.26 459.22 731.39 457.83C727.7 456.04 723.25 456.28 719.06 456.13C713.826 455.935 708.641 455.047 703.64 453.49C702.187 453.126 700.826 452.465 699.64 451.55C697.26 449.45 697.42 446.06 697.64 443.1C698.075 437.346 698.125 431.57 697.79 425.81C697.73 424.73 697.65 423.65 697.56 422.57C697.16 417.74 695.86 412.14 690.92 410.07C688.38 409.07 685.35 409.15 682.92 407.94C682.569 407.763 682.234 407.556 681.92 407.32C678.32 404.8 677.99 399.75 678.13 395.5C678.343 389.66 678.547 383.817 678.74 377.97C678.922 375.086 678.859 372.193 678.55 369.32C678.309 367.412 677.783 365.552 676.99 363.8C674.82 359.16 670.3 355.29 669.49 350.39C669.445 350.162 669.415 349.932 669.4 349.7C668.98 345.32 671.74 341.24 672.71 336.93C674.65 328.26 668.13 318.76 658.54 316.27C655.54 315.49 652.32 315.34 649.33 314.45C648.852 314.307 648.381 314.14 647.92 313.95C655.16 304.29 667.57 297.95 681.66 297.95C703.99 297.95 722.1 313.95 722.1 333.7C722.1 344.9 716.27 354.89 707.16 361.45C707.22 361.73 707.29 362.02 707.37 362.3C709.72 371.39 717.01 380.91 717.01 380.91L739.65 388.11L742.17 388.91C760.87 400.9 755.21 440.63 755.21 440.63Z" fill="black"/>
<path opacity="0.1" d="M767.5 469.35C767.28 469.35 767.07 469.3 766.86 469.26C767.077 469.237 767.297 469.268 767.5 469.35Z" fill="black"/>
<path d="M690.18 280.12C683.923 278.666 677.523 277.918 671.1 277.89C669.01 277.89 666.77 278 665.1 279.15C662.89 280.7 662.61 283.5 661.95 285.92C660.756 289.961 658.238 293.483 654.8 295.92C652.43 297.65 649.64 298.92 647.37 300.74C645.1 302.56 643.37 305.26 643.94 307.92C644.51 310.58 647.5 312.63 650.5 313.48C653.5 314.33 656.69 314.48 659.71 315.3C669.3 317.79 675.81 327.3 673.87 335.95C672.87 340.26 670.14 344.34 670.56 348.72C671.05 353.95 675.88 357.98 678.15 362.83C680.22 367.25 680.08 372.21 679.92 376.99L679.31 394.53C679.15 399.15 679.55 404.71 684.11 406.97C686.55 408.17 689.59 408.04 692.11 409.1C697.05 411.16 698.35 416.77 698.75 421.59C699.322 428.42 699.348 435.285 698.83 442.12C698.6 445.12 698.44 448.47 700.83 450.57C702.013 451.489 703.376 452.15 704.83 452.51C709.831 454.067 715.016 454.955 720.25 455.15C724.45 455.31 728.89 455.07 732.58 456.85C735.45 458.24 737.45 460.68 739.68 462.79C746.074 468.64 754.224 472.209 762.86 472.94C764.71 473.1 766.81 473.06 768.1 471.87C769.39 470.68 768.63 468.11 766.79 468.26C768.353 468.523 769.958 468.363 771.438 467.796C772.919 467.23 774.221 466.279 775.21 465.04C776.051 463.844 776.503 462.417 776.503 460.955C776.503 459.493 776.051 458.066 775.21 456.87C773.12 453.87 768.68 451.87 768.44 448.31C768.31 446.31 769.64 444.5 770.68 442.72C773.187 438.288 774.188 433.162 773.532 428.113C772.875 423.063 770.597 418.363 767.04 414.72C762.35 409.87 755.32 406.19 753.68 399.97C752.59 395.81 754.24 391.44 753.61 387.21C752.61 380.21 745.68 375.21 741.87 368.97C738.06 362.73 737.39 355.18 738.36 348.08C739.33 340.98 741.79 334.08 743.79 327.18C745.28 322.03 746.51 316.56 744.85 311.45C743.66 307.82 741.1 304.67 738.44 301.7C732.07 294.59 724.74 287.93 715.68 283.7C706.62 279.47 695.58 277.83 685.96 280.96" fill="#474157"/>
<g opacity="0.1" filter="url(#filter9_d)">
<path d="M690.18 280.12C683.923 278.666 677.523 277.918 671.1 277.89C669.01 277.89 666.77 278 665.1 279.15C662.89 280.7 662.61 283.5 661.95 285.92C660.756 289.961 658.238 293.483 654.8 295.92C652.43 297.65 649.64 298.92 647.37 300.74C645.1 302.56 643.37 305.26 643.94 307.92C644.51 310.58 647.5 312.63 650.5 313.48C653.5 314.33 656.69 314.48 659.71 315.3C669.3 317.79 675.81 327.3 673.87 335.95C672.87 340.26 670.14 344.34 670.56 348.72C671.05 353.95 675.88 357.98 678.15 362.83C680.22 367.25 680.08 372.21 679.92 376.99L679.31 394.53C679.15 399.15 679.55 404.71 684.11 406.97C686.55 408.17 689.59 408.04 692.11 409.1C697.05 411.16 698.35 416.77 698.75 421.59C699.322 428.42 699.348 435.285 698.83 442.12C698.6 445.12 698.44 448.47 700.83 450.57C702.013 451.489 703.376 452.15 704.83 452.51C709.831 454.067 715.016 454.955 720.25 455.15C724.45 455.31 728.89 455.07 732.58 456.85C735.45 458.24 737.45 460.68 739.68 462.79C746.074 468.64 754.224 472.209 762.86 472.94C764.71 473.1 766.81 473.06 768.1 471.87C769.39 470.68 768.63 468.11 766.79 468.26C768.353 468.523 769.958 468.363 771.438 467.796C772.919 467.23 774.221 466.279 775.21 465.04C776.051 463.844 776.503 462.417 776.503 460.955C776.503 459.493 776.051 458.066 775.21 456.87C773.12 453.87 768.68 451.87 768.44 448.31C768.31 446.31 769.64 444.5 770.68 442.72C773.187 438.288 774.188 433.162 773.532 428.113C772.875 423.063 770.597 418.363 767.04 414.72C762.35 409.87 755.32 406.19 753.68 399.97C752.59 395.81 754.24 391.44 753.61 387.21C752.61 380.21 745.68 375.21 741.87 368.97C738.06 362.73 737.39 355.18 738.36 348.08C739.33 340.98 741.79 334.08 743.79 327.18C745.28 322.03 746.51 316.56 744.85 311.45C743.66 307.82 741.1 304.67 738.44 301.7C732.07 294.59 724.74 287.93 715.68 283.7C706.62 279.47 695.58 277.83 685.96 280.96" fill="black"/>
</g>
<path opacity="0.1" d="M636.68 502.9C636.68 502.9 645.18 506.15 654.18 497.15C663.18 488.15 636.68 502.9 636.68 502.9Z" fill="black"/>
<g opacity="0.1">
<path opacity="0.1" d="M693.94 279.97C695.59 279.642 697.261 279.431 698.94 279.34C696.605 279.197 694.262 279.271 691.94 279.56L693.94 279.97Z" fill="black"/>
<path opacity="0.1" d="M744.08 462.79C741.84 460.68 739.85 458.24 736.97 456.85C733.29 455.07 728.84 455.31 724.64 455.15C719.406 454.958 714.22 454.071 709.22 452.51C707.766 452.15 706.403 451.489 705.22 450.57C702.84 448.47 703.01 445.09 703.22 442.12C703.738 435.285 703.712 428.42 703.14 421.59C702.73 416.77 701.44 411.16 696.49 409.1C693.96 408.04 690.93 408.17 688.49 406.97C683.93 404.71 683.49 399.15 683.68 394.53C683.887 388.683 684.09 382.84 684.29 377C684.46 372.21 684.59 367.25 682.52 362.83C680.25 357.98 675.42 353.96 674.93 348.72C674.52 344.35 677.28 340.26 678.25 335.95C680.19 327.28 673.67 317.79 664.08 315.3C661.08 314.52 657.86 314.36 654.87 313.48C651.88 312.6 648.98 310.7 648.36 307.98C647.74 305.26 649.51 302.62 651.78 300.79C654.05 298.96 656.84 297.7 659.22 295.97C662.658 293.536 665.174 290.012 666.36 285.97C667.03 283.55 667.36 280.76 669.51 279.2C670.743 278.436 672.16 278.021 673.61 278C672.72 278 671.83 277.95 670.95 277.95C668.86 277.95 666.62 278.06 664.95 279.2C662.74 280.76 662.46 283.55 661.8 285.97C660.606 290.011 658.088 293.533 654.65 295.97C652.28 297.7 649.49 298.97 647.22 300.79C644.95 302.61 643.22 305.31 643.79 307.98C644.36 310.65 647.32 312.59 650.31 313.48C653.3 314.37 656.5 314.48 659.52 315.3C669.11 317.79 675.62 327.3 673.68 335.95C672.68 340.26 669.95 344.35 670.37 348.72C670.86 353.96 675.69 357.98 677.96 362.83C680.03 367.25 679.9 372.21 679.73 377C679.523 382.84 679.32 388.683 679.12 394.53C678.96 399.15 679.36 404.71 683.92 406.97C686.36 408.17 689.4 408.04 691.92 409.1C696.86 411.16 698.16 416.77 698.56 421.59C699.132 428.42 699.158 435.285 698.64 442.12C698.41 445.12 698.25 448.47 700.64 450.57C701.823 451.489 703.186 452.15 704.64 452.51C709.64 454.072 714.825 454.959 720.06 455.15C724.26 455.31 728.7 455.07 732.39 456.85C735.26 458.24 737.26 460.68 739.5 462.79C745.889 468.642 754.037 472.212 762.67 472.94C763.787 473.073 764.917 473.029 766.02 472.81C757.834 471.865 750.155 468.358 744.08 462.79Z" fill="black"/>
</g>
<path opacity="0.1" d="M588.93 432.63C588.93 432.63 580.93 439.97 582.1 442.97C583.27 445.97 588.93 432.63 588.93 432.63Z" fill="black"/>
<path d="M596.35 526.98C590.58 525.57 574.67 524.27 567.1 549.66C565.338 555.558 563.093 561.3 560.39 566.83C553.13 581.74 543.75 612.4 585 619.15L684 641.65C684 641.65 737 648.15 740.5 645.65C744 643.15 743.5 637.65 743.5 637.65C743.5 637.65 685 637.65 673.5 619.65C662 601.65 661.5 577.15 661.5 577.15C661.5 577.15 662.94 539.32 602.5 528.33C600.5 527.95 598.4 527.48 596.35 526.98Z" fill="#474157"/>
<g opacity="0.1" filter="url(#filter10_d)">
<path d="M596.35 527.15C590.58 525.74 574.67 524.44 567.1 549.84C565.338 555.738 563.093 561.48 560.39 567.01C553.13 581.91 543.75 612.57 585 619.32L684 641.82C684 641.82 737 648.32 740.5 645.82C744 643.32 743.5 637.82 743.5 637.82C743.5 637.82 685 637.82 673.5 619.82C662 601.82 661.5 577.32 661.5 577.32C661.5 577.32 662.94 539.49 602.5 528.5C600.5 528.12 598.4 527.63 596.35 527.15Z" fill="black"/>
</g>
<path d="M803.88 501.11C803.307 497.45 801.424 494.123 798.583 491.747C795.741 489.37 792.133 488.107 788.43 488.19C774.19 488.45 730.36 490.35 710 503.65C710 503.65 694.5 513.65 690 513.65C685.5 513.65 624.5 565.65 715 612.15C715 612.15 763.5 625.95 782.5 593.55C782.5 593.55 796 558.75 795 546.7C794 534.65 804 502.15 804 502.15C804 502.15 803.98 501.76 803.88 501.11Z" fill="#474157"/>
<g opacity="0.1" filter="url(#filter11_d)">
<path d="M803.88 509.87C802.74 502.87 796.08 497.81 788.43 497.94C774.19 498.18 730.36 499.94 710 512.21C710 512.21 694.5 521.44 690 521.44C685.5 521.44 624.5 569.44 715 612.37C715 612.37 763.5 625.11 782.5 595.2C782.5 595.2 796 563.07 795 551.95C794 540.83 804 510.83 804 510.83C804 510.83 803.98 510.47 803.88 509.87Z" fill="black"/>
</g>
<path d="M755.5 612.14H739.5V646.21H755.5V612.14Z" fill="#5F5D7E"/>
<path opacity="0.1" d="M170.24 473.6C195.115 473.6 215.28 472.306 215.28 470.71C215.28 469.114 195.115 467.82 170.24 467.82C145.365 467.82 125.2 469.114 125.2 470.71C125.2 472.306 145.365 473.6 170.24 473.6Z" fill="black"/>
<path d="M208.04 359.25C207.081 360.565 206.313 362.009 205.76 363.54C205.62 363.92 205.48 364.34 205.34 364.75C205.088 364.63 204.823 364.54 204.55 364.48C203.384 364.188 202.179 364.083 200.98 364.17C200.98 363.71 201.04 363.17 201.05 362.71C201.2 357.44 200.58 350.09 195.55 353.2C190.73 356.2 194.17 361.2 197.28 364.41L198.08 365.19C195.24 367.19 194.7 371.92 194.23 376.83C193.76 381.74 189.59 387.12 186.82 390.17C186.54 390.48 186.29 390.76 186.04 391.02C184.922 390.124 183.625 389.476 182.238 389.119C180.85 388.763 179.402 388.705 177.99 388.95C177.88 388.52 177.75 388.07 177.62 387.59C175.38 379.51 170.73 365.5 164.8 362.43L165.58 361.43C168.1 358.13 170.94 353.24 166.75 351.98C162.56 350.72 162.18 356.23 162.41 360.35C162.41 360.87 162.49 361.35 162.53 361.81C161.693 361.851 160.873 362.061 160.12 362.429C159.367 362.797 158.696 363.315 158.15 363.95L157.5 363.19C154.1 359.19 147.87 352.82 145.98 357.63C144.22 362.11 149.71 367.92 153.57 371.29L153.81 371.5C151.22 382.03 162.5 390.63 168.62 394.35L169.41 394.83C161.01 404.73 155.82 423.28 155.82 423.28L179.34 427.48C179.34 427.48 194.94 414.03 192.94 401.39H193.1C208.69 398.27 212.23 381.65 209.8 371.78L210.08 371.67C212.918 370.505 215.406 368.624 217.3 366.21C221.66 360.14 212.5 353.3 208.04 359.25Z" fill="#2271FF"/>
<path opacity="0.1" d="M208.04 359.25C207.081 360.565 206.313 362.009 205.76 363.54C205.62 363.92 205.48 364.34 205.34 364.75C205.088 364.63 204.823 364.54 204.55 364.48C203.384 364.188 202.179 364.083 200.98 364.17C200.98 363.71 201.04 363.17 201.05 362.71C201.2 357.44 200.58 350.09 195.55 353.2C190.73 356.2 194.17 361.2 197.28 364.41L198.08 365.19C195.24 367.19 194.7 371.92 194.23 376.83C193.76 381.74 189.59 387.12 186.82 390.17C186.54 390.48 186.29 390.76 186.04 391.02C184.922 390.124 183.625 389.476 182.238 389.119C180.85 388.763 179.402 388.705 177.99 388.95C177.88 388.52 177.75 388.07 177.62 387.59C175.38 379.51 170.73 365.5 164.8 362.43L165.58 361.43C168.1 358.13 170.94 353.24 166.75 351.98C162.56 350.72 162.18 356.23 162.41 360.35C162.41 360.87 162.49 361.35 162.53 361.81C161.693 361.851 160.873 362.061 160.12 362.429C159.367 362.797 158.696 363.315 158.15 363.95L157.5 363.19C154.1 359.19 147.87 352.82 145.98 357.63C144.22 362.11 149.71 367.92 153.57 371.29L153.81 371.5C151.22 382.03 162.5 390.63 168.62 394.35L169.41 394.83C161.01 404.73 155.82 423.28 155.82 423.28L179.34 427.48C179.34 427.48 194.94 414.03 192.94 401.39H193.1C208.69 398.27 212.23 381.65 209.8 371.78L210.08 371.67C212.918 370.505 215.406 368.624 217.3 366.21C221.66 360.14 212.5 353.3 208.04 359.25Z" fill="black"/>
<path d="M161.22 366.03L158.5 374.08C158.5 374.08 156.97 373 155.04 371.3C151.18 367.93 145.69 362.12 147.45 357.64C149.34 352.83 155.57 359.18 158.97 363.2C160.31 364.79 161.22 366.03 161.22 366.03Z" fill="#6D10FF"/>
<path d="M167.02 361.44C166.183 362.537 165.289 363.588 164.34 364.59C164.106 363.189 163.942 361.777 163.85 360.36C163.62 356.24 164.06 350.77 168.19 351.99C172.32 353.21 169.5 358.14 167.02 361.44Z" fill="#6D10FF"/>
<path d="M202.5 362.71C202.42 365.36 202.16 367.47 202.16 367.47C200.949 366.529 199.803 365.506 198.73 364.41C195.62 361.18 192.18 356.2 197 353.2C202.02 350.09 202.64 357.44 202.5 362.71Z" fill="#6D10FF"/>
<path d="M218.74 366.18C216.839 368.593 214.344 370.471 211.5 371.63C210.713 371.971 209.904 372.262 209.08 372.5L205.84 367.95C206.183 366.447 206.631 364.97 207.18 363.53C207.733 361.999 208.501 360.555 209.46 359.24C213.96 353.3 223.1 360.14 218.74 366.18Z" fill="#6D10FF"/>
<path opacity="0.1" d="M158.94 363.2C160.31 364.79 161.22 366.03 161.22 366.03L158.5 374.08C158.5 374.08 156.97 373 155.04 371.3C155.471 368.723 156.536 366.293 158.14 364.23C158.38 363.86 158.67 363.51 158.94 363.2Z" fill="black"/>
<path opacity="0.1" d="M167.02 361.44C166.183 362.537 165.289 363.588 164.34 364.59C164.106 363.189 163.942 361.777 163.85 360.36C164.994 360.379 166.103 360.757 167.02 361.44Z" fill="black"/>
<path d="M180.5 393.4L173.66 396.4C173.66 396.4 172.17 395.68 170.02 394.34C162.83 389.91 148.38 378.78 158.07 365.66C167.76 352.54 175.84 376.08 179.02 387.58C180.03 391.03 180.5 393.4 180.5 393.4Z" fill="#6D10FF"/>
<path opacity="0.1" d="M198.72 364.41C199.712 363.381 201.062 362.772 202.49 362.71C202.41 365.36 202.15 367.47 202.15 367.47C200.939 366.529 199.793 365.506 198.72 364.41Z" fill="black"/>
<path opacity="0.1" d="M211.5 371.63C210.713 371.971 209.904 372.262 209.08 372.5L205.84 367.95C206.183 366.447 206.631 364.97 207.18 363.53C209.29 364.77 210.83 367.8 211.5 371.63Z" fill="black"/>
<path d="M194.5 401.36L193.35 401.56C170.42 405.05 185.79 392.68 185.79 392.68C185.79 392.68 186.79 391.73 188.22 390.17C190.99 387.12 195.15 381.77 195.63 376.83C196.35 369.4 197.18 362.43 205.95 364.48C214.6 366.49 216.25 397.01 194.5 401.36Z" fill="#6D10FF"/>
<path d="M194.11 458.44H150.3V469.96H194.11V458.44Z" fill="#474157"/>
<path d="M200.58 421H143.34V461.2H200.58V421Z" fill="#474157"/>
<path opacity="0.1" d="M193.69 458.44H149.88V469.96H193.69V458.44Z" fill="black"/>
<path opacity="0.1" d="M200.4 421.01H143.16V461.21H200.4V421.01Z" fill="black"/>
<g filter="url(#filter12_d)">
<path d="M196.99 458.44H153.18V469.96H196.99V458.44Z" fill="#474157"/>
</g>
<path opacity="0.1" d="M179.06 387.63C180.06 391.07 180.54 393.44 180.54 393.44L173.7 396.44C173.7 396.44 172.21 395.72 170.06 394.38C172.74 390.95 175.76 388.38 179.06 387.63Z" fill="black"/>
<path opacity="0.1" d="M194.5 401.36L193.35 401.56C170.42 405.05 185.79 392.68 185.79 392.68C185.79 392.68 186.79 391.73 188.22 390.17C192.5 393.63 194.31 397.46 194.5 401.36Z" fill="black"/>
<path d="M157.26 423.28C157.26 423.28 170.1 377.28 188.11 391.48C206.12 405.68 180.78 427.48 180.78 427.48L157.26 423.28Z" fill="#6D10FF"/>
<path opacity="0.1" d="M163.74 374.31C164.535 374.31 165.18 373.665 165.18 372.87C165.18 372.075 164.535 371.43 163.74 371.43C162.945 371.43 162.3 372.075 162.3 372.87C162.3 373.665 162.945 374.31 163.74 374.31Z" fill="black"/>
<path opacity="0.1" d="M163.62 381.04C164.415 381.04 165.06 380.395 165.06 379.6C165.06 378.805 164.415 378.16 163.62 378.16C162.825 378.16 162.18 378.805 162.18 379.6C162.18 380.395 162.825 381.04 163.62 381.04Z" fill="black"/>
<path opacity="0.1" d="M205.39 375.63C206.185 375.63 206.83 374.985 206.83 374.19C206.83 373.395 206.185 372.75 205.39 372.75C204.595 372.75 203.95 373.395 203.95 374.19C203.95 374.985 204.595 375.63 205.39 375.63Z" fill="black"/>
<path opacity="0.1" d="M171.78 410.08C172.575 410.08 173.22 409.435 173.22 408.64C173.22 407.845 172.575 407.2 171.78 407.2C170.985 407.2 170.34 407.845 170.34 408.64C170.34 409.435 170.985 410.08 171.78 410.08Z" fill="black"/>
<path opacity="0.1" d="M202.39 386.8C203.185 386.8 203.83 386.155 203.83 385.36C203.83 384.565 203.185 383.92 202.39 383.92C201.595 383.92 200.95 384.565 200.95 385.36C200.95 386.155 201.595 386.8 202.39 386.8Z" fill="black"/>
<path opacity="0.1" d="M187.51 401.68C188.305 401.68 188.95 401.035 188.95 400.24C188.95 399.445 188.305 398.8 187.51 398.8C186.715 398.8 186.07 399.445 186.07 400.24C186.07 401.035 186.715 401.68 187.51 401.68Z" fill="black"/>
<path opacity="0.1" d="M168.66 377.19C169.455 377.19 170.1 376.545 170.1 375.75C170.1 374.955 169.455 374.31 168.66 374.31C167.865 374.31 167.22 374.955 167.22 375.75C167.22 376.545 167.865 377.19 168.66 377.19Z" fill="black"/>
<path opacity="0.1" d="M201.43 379.96C202.225 379.96 202.87 379.315 202.87 378.52C202.87 377.725 202.225 377.08 201.43 377.08C200.635 377.08 199.99 377.725 199.99 378.52C199.99 379.315 200.635 379.96 201.43 379.96Z" fill="black"/>
<path opacity="0.1" d="M196.51 391.12C197.305 391.12 197.95 390.475 197.95 389.68C197.95 388.885 197.305 388.24 196.51 388.24C195.715 388.24 195.07 388.885 195.07 389.68C195.07 390.475 195.715 391.12 196.51 391.12Z" fill="black"/>
<path opacity="0.1" d="M181.38 409C182.175 409 182.82 408.355 182.82 407.56C182.82 406.765 182.175 406.12 181.38 406.12C180.585 406.12 179.94 406.765 179.94 407.56C179.94 408.355 180.585 409 181.38 409Z" fill="black"/>
<path opacity="0.1" d="M178.26 401.92C179.055 401.92 179.7 401.275 179.7 400.48C179.7 399.685 179.055 399.04 178.26 399.04C177.465 399.04 176.82 399.685 176.82 400.48C176.82 401.275 177.465 401.92 178.26 401.92Z" fill="black"/>
<path opacity="0.1" d="M170.82 385.96C171.615 385.96 172.26 385.315 172.26 384.52C172.26 383.725 171.615 383.08 170.82 383.08C170.025 383.08 169.38 383.725 169.38 384.52C169.38 385.315 170.025 385.96 170.82 385.96Z" fill="black"/>
<path opacity="0.1" d="M196.99 458.44H153.18V462.65H196.99V458.44Z" fill="black"/>
<g filter="url(#filter13_d)">
<path d="M203.46 421H146.22V461.2H203.46V421Z" fill="#474157"/>
</g>
<path opacity="0.1" d="M183.3 415.48C184.095 415.48 184.74 414.835 184.74 414.04C184.74 413.245 184.095 412.6 183.3 412.6C182.505 412.6 181.86 413.245 181.86 414.04C181.86 414.835 182.505 415.48 183.3 415.48Z" fill="black"/>
<path opacity="0.1" d="M174.66 417.28C175.455 417.28 176.1 416.635 176.1 415.84C176.1 415.045 175.455 414.4 174.66 414.4C173.865 414.4 173.22 415.045 173.22 415.84C173.22 416.635 173.865 417.28 174.66 417.28Z" fill="black"/>
<path d="M311.89 574.63C311.89 574.63 319.02 583.96 308.6 598.04C298.18 612.12 289.6 624.04 293.04 632.8C293.04 632.8 308.78 606.64 321.59 606.28C334.4 605.92 325.98 590.37 311.89 574.63Z" fill="#6D10FF"/>
<path opacity="0.1" d="M311.89 574.63C312.513 575.529 313.005 576.512 313.35 577.55C325.84 592.23 332.5 605.93 320.49 606.28C309.3 606.63 295.88 626.63 292.66 631.63C292.77 632.02 292.9 632.41 293.04 632.78C293.04 632.78 308.78 606.62 321.59 606.26C334.4 605.9 325.98 590.37 311.89 574.63Z" fill="black"/>
<path d="M325.15 586.53C325.15 589.81 324.78 592.47 324.33 592.47C323.88 592.47 323.51 589.81 323.51 586.53C323.51 583.25 323.97 584.79 324.42 584.79C324.87 584.79 325.15 583.24 325.15 586.53Z" fill="#FFD037"/>
<path d="M329.7 590.45C326.82 592.02 324.31 592.97 324.09 592.57C323.87 592.17 326.03 590.57 328.92 589C331.81 587.43 330.66 588.57 330.92 589C331.18 589.43 332.59 588.88 329.7 590.45Z" fill="#FFD037"/>
<path d="M274.2 574.63C274.2 574.63 267.07 583.96 277.49 598.04C287.91 612.12 296.49 624.04 293.04 632.8C293.04 632.8 277.31 606.64 264.5 606.28C251.69 605.92 260.11 590.37 274.2 574.63Z" fill="#6D10FF"/>
<path opacity="0.1" d="M274.2 574.63C273.577 575.529 273.085 576.512 272.74 577.55C260.25 592.23 253.59 605.93 265.6 606.28C276.79 606.63 290.21 626.63 293.43 631.63C293.321 632.02 293.191 632.404 293.04 632.78C293.04 632.78 277.31 606.63 264.5 606.29C251.69 605.95 260.11 590.37 274.2 574.63Z" fill="black"/>
<path d="M260.94 586.53C260.94 589.81 261.31 592.47 261.76 592.47C262.21 592.47 262.58 589.81 262.58 586.53C262.58 583.25 262.12 584.79 261.67 584.79C261.22 584.79 260.94 583.24 260.94 586.53Z" fill="#FFD037"/>
<path d="M256.39 590.45C259.27 592.02 261.78 592.97 262 592.57C262.22 592.17 260.06 590.57 257.17 589C254.28 587.43 255.43 588.57 255.17 589C254.91 589.43 253.5 588.88 256.39 590.45Z" fill="#FFD037"/>
<path opacity="0.1" d="M293.04 704.19C334.24 704.19 367.64 699.064 367.64 692.74C367.64 686.416 334.24 681.29 293.04 681.29C251.84 681.29 218.44 686.416 218.44 692.74C218.44 699.064 251.84 704.19 293.04 704.19Z" fill="#6D10FF"/>
<g filter="url(#filter14_d)">
<path d="M331.44 620.24L331.08 623.15L330.58 627.27L330.38 628.98L329.87 633.1L329.66 634.82L329.16 638.93L323.5 685.73C322.99 689.91 316.16 693.16 307.93 693.16H278.21C269.97 693.16 263.21 689.91 262.65 685.73L256.93 638.93L256.43 634.82L256.22 633.1L255.71 628.98L255.51 627.27L255.01 623.15L254.65 620.24C254.36 617.88 258.05 615.88 262.72 615.88H323.38C328.03 615.88 331.73 617.88 331.44 620.24Z" fill="#65617D"/>
</g>
<path d="M331.08 623.15L330.58 627.26H255.51L255.01 623.15H331.08Z" fill="#9D9CB5"/>
<path d="M330.38 628.98L329.88 633.1H256.22L255.71 628.98H330.38Z" fill="#9D9CB5"/>
<path d="M329.66 634.81L329.16 638.93H256.93L256.43 634.81H329.66Z" fill="#9D9CB5"/>
</g>
<defs>
<filter id="filter0_d" x="94" y="487.31" width="124" height="250" filterUnits="userSpaceOnUse" color-interpolation-filters="sRGB">
<feFlood flood-opacity="0" result="BackgroundImageFix"/>
<feColorMatrix in="SourceAlpha" type="matrix" values="0 0 0 0 0 0 0 0 0 0 0 0 0 0 0 0 0 0 127 0"/>
<feOffset dy="4"/>
<feGaussianBlur stdDeviation="2"/>
<feColorMatrix type="matrix" values="0 0 0 0 0 0 0 0 0 0 0 0 0 0 0 0 0 0 0.25 0"/>
<feBlend mode="normal" in2="BackgroundImageFix" result="effect1_dropShadow"/>
<feBlend mode="normal" in="SourceGraphic" in2="effect1_dropShadow" result="shape"/>
</filter>
<filter id="filter1_d" x="893.33" y="483.14" width="109.67" height="252.83" filterUnits="userSpaceOnUse" color-interpolation-filters="sRGB">
<feFlood flood-opacity="0" result="BackgroundImageFix"/>
<feColorMatrix in="SourceAlpha" type="matrix" values="0 0 0 0 0 0 0 0 0 0 0 0 0 0 0 0 0 0 127 0"/>
<feOffset dy="4"/>
<feGaussianBlur stdDeviation="2"/>
<feColorMatrix type="matrix" values="0 0 0 0 0 0 0 0 0 0 0 0 0 0 0 0 0 0 0.25 0"/>
<feBlend mode="normal" in2="BackgroundImageFix" result="effect1_dropShadow"/>
<feBlend mode="normal" in="SourceGraphic" in2="effect1_dropShadow" result="shape"/>
</filter>
<filter id="filter2_d" x="-4" y="458.64" width="1007" height="57" filterUnits="userSpaceOnUse" color-interpolation-filters="sRGB">
<feFlood flood-opacity="0" result="BackgroundImageFix"/>
<feColorMatrix in="SourceAlpha" type="matrix" values="0 0 0 0 0 0 0 0 0 0 0 0 0 0 0 0 0 0 127 0"/>
<feOffset dy="4"/>
<feGaussianBlur stdDeviation="2"/>
<feColorMatrix type="matrix" values="0 0 0 0 0 0 0 0 0 0 0 0 0 0 0 0 0 0 0.25 0"/>
<feBlend mode="normal" in2="BackgroundImageFix" result="effect1_dropShadow"/>
<feBlend mode="normal" in="SourceGraphic" in2="effect1_dropShadow" result="shape"/>
</filter>
<filter id="filter3_d" x="361.5" y="194.97" width="357.92" height="279.69" filterUnits="userSpaceOnUse" color-interpolation-filters="sRGB">
<feFlood flood-opacity="0" result="BackgroundImageFix"/>
<feColorMatrix in="SourceAlpha" type="matrix" values="0 0 0 0 0 0 0 0 0 0 0 0 0 0 0 0 0 0 127 0"/>
<feOffset dy="4"/>
<feGaussianBlur stdDeviation="2"/>
<feColorMatrix type="matrix" values="0 0 0 0 0 0 0 0 0 0 0 0 0 0 0 0 0 0 0.25 0"/>
<feBlend mode="normal" in2="BackgroundImageFix" result="effect1_dropShadow"/>
<feBlend mode="normal" in="SourceGraphic" in2="effect1_dropShadow" result="shape"/>
</filter>
<filter id="filter4_d" x="597.85" y="746.5" width="178.24" height="57.1" filterUnits="userSpaceOnUse" color-interpolation-filters="sRGB">
<feFlood flood-opacity="0" result="BackgroundImageFix"/>
<feColorMatrix in="SourceAlpha" type="matrix" values="0 0 0 0 0 0 0 0 0 0 0 0 0 0 0 0 0 0 127 0"/>
<feOffset dy="4"/>
<feGaussianBlur stdDeviation="2"/>
<feColorMatrix type="matrix" values="0 0 0 0 0 0 0 0 0 0 0 0 0 0 0 0 0 0 0.25 0"/>
<feBlend mode="normal" in2="BackgroundImageFix" result="effect1_dropShadow"/>
<feBlend mode="normal" in="SourceGraphic" in2="effect1_dropShadow" result="shape"/>
</filter>
<filter id="filter5_d" x="557.909" y="340.797" width="43.0667" height="131.121" filterUnits="userSpaceOnUse" color-interpolation-filters="sRGB">
<feFlood flood-opacity="0" result="BackgroundImageFix"/>
<feColorMatrix in="SourceAlpha" type="matrix" values="0 0 0 0 0 0 0 0 0 0 0 0 0 0 0 0 0 0 127 0"/>
<feOffset dy="4"/>
<feGaussianBlur stdDeviation="2"/>
<feColorMatrix type="matrix" values="0 0 0 0 0 0 0 0 0 0 0 0 0 0 0 0 0 0 0.25 0"/>
<feBlend mode="normal" in2="BackgroundImageFix" result="effect1_dropShadow"/>
<feBlend mode="normal" in="SourceGraphic" in2="effect1_dropShadow" result="shape"/>
</filter>
<filter id="filter6_d" x="576.18" y="399.275" width="99.5" height="88.1246" filterUnits="userSpaceOnUse" color-interpolation-filters="sRGB">
<feFlood flood-opacity="0" result="BackgroundImageFix"/>
<feColorMatrix in="SourceAlpha" type="matrix" values="0 0 0 0 0 0 0 0 0 0 0 0 0 0 0 0 0 0 127 0"/>
<feOffset dy="4"/>
<feGaussianBlur stdDeviation="2"/>
<feColorMatrix type="matrix" values="0 0 0 0 0 0 0 0 0 0 0 0 0 0 0 0 0 0 0.25 0"/>
<feBlend mode="normal" in2="BackgroundImageFix" result="effect1_dropShadow"/>
<feBlend mode="normal" in="SourceGraphic" in2="effect1_dropShadow" result="shape"/>
</filter>
<filter id="filter7_d" x="652.94" y="297.946" width="79.5" height="79.4941" filterUnits="userSpaceOnUse" color-interpolation-filters="sRGB">
<feFlood flood-opacity="0" result="BackgroundImageFix"/>
<feColorMatrix in="SourceAlpha" type="matrix" values="0 0 0 0 0 0 0 0 0 0 0 0 0 0 0 0 0 0 127 0"/>
<feOffset dy="4"/>
<feGaussianBlur stdDeviation="2"/>
<feColorMatrix type="matrix" values="0 0 0 0 0 0 0 0 0 0 0 0 0 0 0 0 0 0 0.25 0"/>
<feBlend mode="normal" in2="BackgroundImageFix" result="effect1_dropShadow"/>
<feBlend mode="normal" in="SourceGraphic" in2="effect1_dropShadow" result="shape"/>
</filter>
<filter id="filter8_d" x="581.911" y="388.09" width="186.914" height="250.105" filterUnits="userSpaceOnUse" color-interpolation-filters="sRGB">
<feFlood flood-opacity="0" result="BackgroundImageFix"/>
<feColorMatrix in="SourceAlpha" type="matrix" values="0 0 0 0 0 0 0 0 0 0 0 0 0 0 0 0 0 0 127 0"/>
<feOffset dy="4"/>
<feGaussianBlur stdDeviation="2"/>
<feColorMatrix type="matrix" values="0 0 0 0 0 0 0 0 0 0 0 0 0 0 0 0 0 0 0.25 0"/>
<feBlend mode="normal" in2="BackgroundImageFix" result="effect1_dropShadow"/>
<feBlend mode="normal" in="SourceGraphic" in2="effect1_dropShadow" result="shape"/>
</filter>
<filter id="filter9_d" x="639.83" y="277.89" width="140.672" height="203.118" filterUnits="userSpaceOnUse" color-interpolation-filters="sRGB">
<feFlood flood-opacity="0" result="BackgroundImageFix"/>
<feColorMatrix in="SourceAlpha" type="matrix" values="0 0 0 0 0 0 0 0 0 0 0 0 0 0 0 0 0 0 127 0"/>
<feOffset dy="4"/>
<feGaussianBlur stdDeviation="2"/>
<feColorMatrix type="matrix" values="0 0 0 0 0 0 0 0 0 0 0 0 0 0 0 0 0 0 0.25 0"/>
<feBlend mode="normal" in2="BackgroundImageFix" result="effect1_dropShadow"/>
<feBlend mode="normal" in="SourceGraphic" in2="effect1_dropShadow" result="shape"/>
</filter>
<filter id="filter10_d" x="550.026" y="526.518" width="197.499" height="127.874" filterUnits="userSpaceOnUse" color-interpolation-filters="sRGB">
<feFlood flood-opacity="0" result="BackgroundImageFix"/>
<feColorMatrix in="SourceAlpha" type="matrix" values="0 0 0 0 0 0 0 0 0 0 0 0 0 0 0 0 0 0 127 0"/>
<feOffset dy="4"/>
<feGaussianBlur stdDeviation="2"/>
<feColorMatrix type="matrix" values="0 0 0 0 0 0 0 0 0 0 0 0 0 0 0 0 0 0 0.25 0"/>
<feBlend mode="normal" in2="BackgroundImageFix" result="effect1_dropShadow"/>
<feBlend mode="normal" in="SourceGraphic" in2="effect1_dropShadow" result="shape"/>
</filter>
<filter id="filter11_d" x="661.733" y="497.938" width="146.267" height="125.128" filterUnits="userSpaceOnUse" color-interpolation-filters="sRGB">
<feFlood flood-opacity="0" result="BackgroundImageFix"/>
<feColorMatrix in="SourceAlpha" type="matrix" values="0 0 0 0 0 0 0 0 0 0 0 0 0 0 0 0 0 0 127 0"/>
<feOffset dy="4"/>
<feGaussianBlur stdDeviation="2"/>
<feColorMatrix type="matrix" values="0 0 0 0 0 0 0 0 0 0 0 0 0 0 0 0 0 0 0.25 0"/>
<feBlend mode="normal" in2="BackgroundImageFix" result="effect1_dropShadow"/>
<feBlend mode="normal" in="SourceGraphic" in2="effect1_dropShadow" result="shape"/>
</filter>
<filter id="filter12_d" x="149.18" y="458.44" width="51.81" height="19.52" filterUnits="userSpaceOnUse" color-interpolation-filters="sRGB">
<feFlood flood-opacity="0" result="BackgroundImageFix"/>
<feColorMatrix in="SourceAlpha" type="matrix" values="0 0 0 0 0 0 0 0 0 0 0 0 0 0 0 0 0 0 127 0"/>
<feOffset dy="4"/>
<feGaussianBlur stdDeviation="2"/>
<feColorMatrix type="matrix" values="0 0 0 0 0 0 0 0 0 0 0 0 0 0 0 0 0 0 0.25 0"/>
<feBlend mode="normal" in2="BackgroundImageFix" result="effect1_dropShadow"/>
<feBlend mode="normal" in="SourceGraphic" in2="effect1_dropShadow" result="shape"/>
</filter>
<filter id="filter13_d" x="142.22" y="421" width="65.24" height="48.2" filterUnits="userSpaceOnUse" color-interpolation-filters="sRGB">
<feFlood flood-opacity="0" result="BackgroundImageFix"/>
<feColorMatrix in="SourceAlpha" type="matrix" values="0 0 0 0 0 0 0 0 0 0 0 0 0 0 0 0 0 0 127 0"/>
<feOffset dy="4"/>
<feGaussianBlur stdDeviation="2"/>
<feColorMatrix type="matrix" values="0 0 0 0 0 0 0 0 0 0 0 0 0 0 0 0 0 0 0.25 0"/>
<feBlend mode="normal" in2="BackgroundImageFix" result="effect1_dropShadow"/>
<feBlend mode="normal" in="SourceGraphic" in2="effect1_dropShadow" result="shape"/>
</filter>
<filter id="filter14_d" x="250.634" y="615.88" width="84.822" height="85.28" filterUnits="userSpaceOnUse" color-interpolation-filters="sRGB">
<feFlood flood-opacity="0" result="BackgroundImageFix"/>
<feColorMatrix in="SourceAlpha" type="matrix" values="0 0 0 0 0 0 0 0 0 0 0 0 0 0 0 0 0 0 127 0"/>
<feOffset dy="4"/>
<feGaussianBlur stdDeviation="2"/>
<feColorMatrix type="matrix" values="0 0 0 0 0 0 0 0 0 0 0 0 0 0 0 0 0 0 0.25 0"/>
<feBlend mode="normal" in2="BackgroundImageFix" result="effect1_dropShadow"/>
<feBlend mode="normal" in="SourceGraphic" in2="effect1_dropShadow" result="shape"/>
</filter>
<linearGradient id="paint0_linear" x1="678.17" y1="793.98" x2="678.17" y2="277.89" gradientUnits="userSpaceOnUse">
<stop stop-color="#808080" stop-opacity="0.25"/>
<stop offset="0.54" stop-color="#808080" stop-opacity="0.12"/>
<stop offset="1" stop-color="#808080" stop-opacity="0.1"/>
</linearGradient>
<clipPath id="clip0">
<rect width="999" height="797.25" fill="white"/>
</clipPath>
</defs>
</svg>
